<svg width="243" height="81" viewBox="0 0 243 81" fill="none" xmlns="http://www.w3.org/2000/svg">
<path d="M36.0606 13.7121V52.5H27.2727L13.2576 32.1212H13.0303V52.5H2.5V13.7121H11.4394L25.2273 34.0152H25.5303V13.7121H36.0606ZM41.1932 52.5V23.4091H51.6477V52.5H41.1932ZM46.4205 20.3788C45.0063 20.3788 43.7942 19.9116 42.7841 18.9773C41.774 18.0429 41.2689 16.9192 41.2689 15.6061C41.2689 14.2929 41.774 13.1692 42.7841 12.2348C43.7942 11.3005 45.0063 10.8333 46.4205 10.8333C47.8472 10.8333 49.0593 11.3005 50.0568 12.2348C51.0669 13.1692 51.572 14.2929 51.572 15.6061C51.572 16.9192 51.0669 18.0429 50.0568 18.9773C49.0593 19.9116 47.8472 20.3788 46.4205 20.3788ZM70.9896 53.0303C67.833 53.0303 65.131 52.4053 62.8835 51.1553C60.636 49.8927 58.9126 48.1376 57.7131 45.8902C56.5136 43.6301 55.9138 41.0101 55.9138 38.0303C55.9138 35.0505 56.5136 32.4369 57.7131 30.1894C58.9126 27.9293 60.636 26.1742 62.8835 24.9242C65.131 23.6616 67.833 23.0303 70.9896 23.0303C73.8431 23.0303 76.3116 23.548 78.3949 24.5833C80.4908 25.6061 82.1133 27.0581 83.2623 28.9394C84.4113 30.8081 84.9921 33.0051 85.0047 35.5303H75.3078C75.1689 34.0025 74.727 32.8409 73.982 32.0455C73.2497 31.2374 72.3027 30.8333 71.1411 30.8333C70.232 30.8333 69.4366 31.0985 68.7547 31.6288C68.0729 32.1465 67.5426 32.9356 67.1638 33.9962C66.785 35.0442 66.5956 36.3636 66.5956 37.9545C66.5956 39.5455 66.785 40.8712 67.1638 41.9318C67.5426 42.9798 68.0729 43.7689 68.7547 44.2992C69.4366 44.8169 70.232 45.0758 71.1411 45.0758C71.9113 45.0758 72.5931 44.899 73.1866 44.5455C73.78 44.1793 74.2598 43.649 74.6259 42.9545C75.0047 42.2475 75.232 41.3889 75.3078 40.3788H85.0047C84.9669 42.9419 84.3797 45.1768 83.2434 47.0833C82.107 48.9773 80.4972 50.4419 78.4138 51.4773C76.3431 52.5126 73.8684 53.0303 70.9896 53.0303ZM99.7727 36.1364V52.5H89.3182V13.7121H99.3939V28.9394H99.697C100.354 27.0833 101.446 25.6376 102.973 24.6023C104.501 23.5543 106.338 23.0303 108.485 23.0303C110.543 23.0303 112.33 23.4975 113.845 24.4318C115.372 25.3662 116.553 26.654 117.386 28.2955C118.232 29.9369 118.649 31.8182 118.636 33.9394V52.5H108.182V36.1364C108.194 34.697 107.835 33.5669 107.102 32.7462C106.383 31.9255 105.354 31.5152 104.015 31.5152C103.169 31.5152 102.424 31.7045 101.78 32.0833C101.149 32.4495 100.657 32.9798 100.303 33.6742C99.9621 34.3561 99.7854 35.1768 99.7727 36.1364ZM123.646 52.5V13.7121H134.176V44.0152H149.858V52.5H123.646ZM154.266 52.5V23.4091H164.721V52.5H154.266ZM159.493 20.3788C158.079 20.3788 156.867 19.9116 155.857 18.9773C154.847 18.0429 154.342 16.9192 154.342 15.6061C154.342 14.2929 154.847 13.1692 155.857 12.2348C156.867 11.3005 158.079 10.8333 159.493 10.8333C160.92 10.8333 162.132 11.3005 163.13 12.2348C164.14 13.1692 164.645 14.2929 164.645 15.6061C164.645 16.9192 164.14 18.0429 163.13 18.9773C162.132 19.9116 160.92 20.3788 159.493 20.3788ZM180.502 36.1364V52.5H170.047V23.4091H179.972V28.9394H180.275C180.906 27.096 182.017 25.6503 183.608 24.6023C185.211 23.5543 187.08 23.0303 189.214 23.0303C191.272 23.0303 193.059 23.5038 194.574 24.4508C196.102 25.3851 197.282 26.673 198.116 28.3144C198.961 29.9558 199.378 31.8308 199.366 33.9394V52.5H188.911V36.1364C188.924 34.697 188.557 33.5669 187.812 32.7462C187.08 31.9255 186.057 31.5152 184.744 31.5152C183.886 31.5152 183.134 31.7045 182.491 32.0833C181.859 32.4495 181.373 32.9798 181.032 33.6742C180.691 34.3561 180.515 35.1768 180.502 36.1364ZM218.466 53.0303C215.36 53.0303 212.683 52.4369 210.436 51.25C208.201 50.0505 206.477 48.3333 205.265 46.0985C204.066 43.851 203.466 41.1616 203.466 38.0303C203.466 35.0253 204.072 32.399 205.284 30.1515C206.496 27.904 208.207 26.1553 210.417 24.9053C212.626 23.6553 215.234 23.0303 218.239 23.0303C220.436 23.0303 222.424 23.3712 224.205 24.053C225.985 24.7348 227.506 25.726 228.769 27.0265C230.032 28.3144 231.004 29.8801 231.686 31.7235C232.367 33.5669 232.708 35.6439 232.708 37.9545V40.3788H206.723V34.6212H223.087C223.074 33.7879 222.86 33.0556 222.443 32.4242C222.039 31.7803 221.49 31.2816 220.795 30.928C220.114 30.5619 219.337 30.3788 218.466 30.3788C217.62 30.3788 216.843 30.5619 216.136 30.928C215.429 31.2816 214.861 31.774 214.432 32.4053C214.015 33.0366 213.794 33.7753 213.769 34.6212V40.8333C213.769 41.7677 213.965 42.601 214.356 43.3333C214.747 44.0657 215.309 44.6402 216.042 45.0568C216.774 45.4735 217.658 45.6818 218.693 45.6818C219.413 45.6818 220.069 45.5808 220.663 45.3788C221.269 45.1768 221.787 44.8864 222.216 44.5076C222.645 44.1162 222.961 43.649 223.163 43.1061H232.708C232.38 45.1263 231.604 46.8813 230.379 48.3712C229.154 49.8485 227.532 50.9975 225.511 51.8182C223.504 52.6263 221.155 53.0303 218.466 53.0303Z" fill="#00E0B7"/>
<path d="M152.444 7C152.444 3.13401 155.578 0 159.444 0C163.31 0 166.444 3.13401 166.444 7V14C166.444 17.866 163.31 21 159.444 21C155.578 21 152.444 17.866 152.444 14V7Z" fill="#00E0B7"/>
<path d="M155.444 7C155.444 4.79086 157.235 3 159.444 3C161.654 3 163.444 4.79086 163.444 7V10.9681C163.444 10.9857 163.43 11 163.413 11H155.476C155.459 11 155.444 10.9857 155.444 10.9681V7Z" fill="white"/>
<rect x="158.444" y="14" width="2" height="4" rx="1" fill="white"/>
<path d="M39.4444 7C39.4444 3.13401 42.5784 0 46.4444 0C50.3104 0 53.4444 3.13401 53.4444 7V14C53.4444 17.866 50.3104 21 46.4444 21C42.5784 21 39.4444 17.866 39.4444 14V7Z" fill="#00E0B7"/>
<path d="M42.4444 7C42.4444 4.79086 44.2353 3 46.4444 3C48.6535 3 50.4444 4.79086 50.4444 7V10.9681C50.4444 10.9857 50.4301 11 50.4125 11H42.4763C42.4587 11 42.4444 10.9857 42.4444 10.9681V7Z" fill="white"/>
<rect x="45.4444" y="14" width="2" height="4" rx="1" fill="white"/>
</svg>
