<svg width="201" height="14" viewBox="0 0 201 14" fill="none" xmlns="http://www.w3.org/2000/svg">
<path d="M-6.89924e-06 13.6133V0.522372H4.66619C5.68465 0.522372 6.5284 0.707741 7.19744 1.07848C7.86647 1.44922 8.36718 1.95632 8.69957 2.59979C9.03195 3.23899 9.19815 3.95916 9.19815 4.7603C9.19815 5.5657 9.02982 6.29013 8.69318 6.93359C8.36079 7.5728 7.85795 8.0799 7.18465 8.4549C6.51562 8.82564 5.674 9.01101 4.65979 9.01101H1.45099V7.33629H4.48082C5.12428 7.33629 5.6463 7.2255 6.04687 7.00391C6.44744 6.77805 6.74147 6.47124 6.92897 6.08345C7.11647 5.69567 7.21022 5.25462 7.21022 4.7603C7.21022 4.26598 7.11647 3.82706 6.92897 3.44354C6.74147 3.06001 6.44531 2.75959 6.04048 2.54226C5.63991 2.32493 5.1115 2.21626 4.45525 2.21626H1.97514V13.6133H-6.89924e-06ZM11.8103 13.6133V3.7951H13.6576V5.35476H13.7598C13.9388 4.82635 14.2541 4.41087 14.7059 4.10831C15.1618 3.80149 15.6774 3.64808 16.2527 3.64808C16.372 3.64808 16.5127 3.65234 16.6746 3.66087C16.8408 3.66939 16.9708 3.68004 17.0645 3.69283V5.52095C16.9878 5.49964 16.8514 5.47621 16.6554 5.45064C16.4594 5.42081 16.2634 5.40589 16.0674 5.40589C15.6157 5.40589 15.213 5.50178 14.8593 5.69354C14.5098 5.88104 14.2328 6.14311 14.0283 6.47976C13.8238 6.81214 13.7215 7.19141 13.7215 7.61754V13.6133H11.8103ZM19.1685 13.6133V3.7951H21.0797V13.6133H19.1685ZM20.1337 2.28018C19.8013 2.28018 19.5158 2.16939 19.2771 1.9478C19.0427 1.72195 18.9256 1.45348 18.9256 1.1424C18.9256 0.827059 19.0427 0.558593 19.2771 0.337002C19.5158 0.11115 19.8013 -0.00177586 20.1337 -0.00177586C20.466 -0.00177586 20.7494 0.11115 20.9838 0.337002C21.2224 0.558593 21.3418 0.827059 21.3418 1.1424C21.3418 1.45348 21.2224 1.72195 20.9838 1.9478C20.7494 2.16939 20.466 2.28018 20.1337 2.28018ZM32.5 3.7951L28.9397 13.6133H26.8942L23.3274 3.7951H25.3793L27.8658 11.3505H27.9681L30.4482 3.7951H32.5ZM37.3222 13.8306C36.7 13.8306 36.1375 13.7156 35.6347 13.4854C35.1318 13.2511 34.7334 12.9123 34.4394 12.4691C34.1496 12.0259 34.0047 11.4826 34.0047 10.8391C34.0047 10.2852 34.1112 9.82919 34.3243 9.47124C34.5374 9.11328 34.825 8.8299 35.1872 8.62109C35.5495 8.41229 35.9543 8.25462 36.4017 8.14808C36.8492 8.04155 37.3051 7.96058 37.7696 7.90518C38.3577 7.837 38.835 7.7816 39.2014 7.73899C39.5679 7.69212 39.8343 7.61754 40.0005 7.51527C40.1666 7.413 40.2497 7.2468 40.2497 7.01669V6.97195C40.2497 6.41371 40.0921 5.98118 39.7767 5.67436C39.4657 5.36754 39.0012 5.21413 38.3833 5.21413C37.7398 5.21413 37.2327 5.35689 36.862 5.6424C36.4955 5.92365 36.2419 6.23686 36.1013 6.58203L34.3051 6.17294C34.5182 5.57635 34.8293 5.09482 35.2384 4.72834C35.6517 4.3576 36.1269 4.08913 36.6638 3.92294C37.2007 3.75249 37.7654 3.66726 38.3577 3.66726C38.7497 3.66726 39.1652 3.71413 39.6041 3.80788C40.0473 3.89737 40.4607 4.06357 40.8442 4.30646C41.232 4.54936 41.5495 4.89666 41.7966 5.34837C42.0438 5.79581 42.1674 6.37749 42.1674 7.09339V13.6133H40.3009V12.271H40.2242C40.1006 12.5181 39.9152 12.761 39.6681 12.9996C39.4209 13.2383 39.1034 13.4364 38.7157 13.5941C38.3279 13.7518 37.8634 13.8306 37.3222 13.8306ZM37.7377 12.2965C38.2661 12.2965 38.7178 12.1921 39.0928 11.9833C39.472 11.7745 39.7597 11.5018 39.9557 11.1651C40.156 10.8242 40.2561 10.4599 40.2561 10.0721V8.80646C40.188 8.87464 40.0559 8.93857 39.8598 8.99822C39.6681 9.05362 39.4486 9.10263 39.2014 9.14524C38.9543 9.18359 38.7135 9.21982 38.4791 9.25391C38.2448 9.28374 38.0487 9.3093 37.8911 9.33061C37.5203 9.37749 37.1816 9.45632 36.8747 9.56712C36.5722 9.67791 36.3293 9.83771 36.1461 10.0465C35.9671 10.2511 35.8776 10.5238 35.8776 10.8647C35.8776 11.3377 36.0523 11.6957 36.4017 11.9386C36.7512 12.1772 37.1965 12.2965 37.7377 12.2965ZM49.7461 3.7951V5.32919H44.3832V3.7951H49.7461ZM45.8214 1.44283H47.7326V10.7305C47.7326 11.1012 47.788 11.3803 47.8988 11.5678C48.0096 11.7511 48.1523 11.8768 48.3271 11.945C48.506 12.0089 48.6999 12.0408 48.9087 12.0408C49.0621 12.0408 49.1964 12.0302 49.3114 12.0089C49.4265 11.9876 49.516 11.9705 49.5799 11.9577L49.9251 13.5366C49.8143 13.5792 49.6566 13.6218 49.4521 13.6644C49.2475 13.7113 48.9918 13.7369 48.685 13.7411C48.1822 13.7496 47.7134 13.6602 47.2788 13.4727C46.8441 13.2852 46.4925 12.9954 46.2241 12.6033C45.9556 12.2113 45.8214 11.7191 45.8214 11.1268V1.44283ZM56.4363 13.8114C55.469 13.8114 54.6359 13.6048 53.937 13.1914C53.2424 12.7738 52.7055 12.1879 52.3262 11.4336C51.9512 10.6751 51.7637 9.78658 51.7637 8.76811C51.7637 7.76243 51.9512 6.87607 52.3262 6.10902C52.7055 5.34197 53.2339 4.74325 53.9115 4.31285C54.5933 3.88246 55.3902 3.66726 56.3021 3.66726C56.8561 3.66726 57.393 3.75888 57.9129 3.94212C58.4328 4.12535 58.8994 4.413 59.3127 4.80504C59.7261 5.19709 60.0521 5.70632 60.2907 6.33274C60.5294 6.9549 60.6487 7.71129 60.6487 8.60192V9.27947H52.844V7.84766H58.7758C58.7758 7.34482 58.6735 6.8995 58.469 6.51172C58.2644 6.11967 57.9768 5.81072 57.6061 5.58487C57.2396 5.35902 56.8092 5.24609 56.3149 5.24609C55.7779 5.24609 55.3092 5.3782 54.9086 5.6424C54.5123 5.90234 54.2055 6.24325 53.9882 6.66513C53.7751 7.08274 53.6686 7.53658 53.6686 8.02663V9.14524C53.6686 9.80149 53.7836 10.3597 54.0137 10.82C54.2481 11.2802 54.5741 11.6317 54.9917 11.8746C55.4093 12.1133 55.8973 12.2326 56.4555 12.2326C56.8177 12.2326 57.148 12.1815 57.4463 12.0792C57.7446 11.9727 58.0024 11.815 58.2197 11.6062C58.437 11.3974 58.6032 11.1396 58.7183 10.8327L60.5272 11.1587C60.3823 11.6914 60.1224 12.158 59.7474 12.5586C59.3767 12.9549 58.91 13.2638 58.3475 13.4854C57.7893 13.7028 57.1522 13.8114 56.4363 13.8114ZM64.4785 13.7347C64.129 13.7347 63.8286 13.6112 63.5772 13.364C63.3258 13.1126 63.2001 12.81 63.2001 12.4563C63.2001 12.1069 63.3258 11.8086 63.5772 11.5614C63.8286 11.31 64.129 11.1843 64.4785 11.1843C64.8279 11.1843 65.1283 11.31 65.3798 11.5614C65.6312 11.8086 65.7569 12.1069 65.7569 12.4563C65.7569 12.6907 65.6972 12.9059 65.5779 13.1019C65.4628 13.2937 65.3094 13.4471 65.1177 13.5621C64.9259 13.6772 64.7128 13.7347 64.4785 13.7347ZM81.063 3.96129C80.9948 3.35618 80.7135 2.88743 80.2192 2.55504C79.7249 2.21839 79.1027 2.05007 78.3527 2.05007C77.8158 2.05007 77.3513 2.1353 76.9593 2.30575C76.5672 2.47195 76.2625 2.70206 76.0452 2.99609C75.8321 3.28587 75.7256 3.61612 75.7256 3.98686C75.7256 4.29794 75.798 4.56641 75.9429 4.79226C76.0921 5.01811 76.286 5.20774 76.5246 5.36115C76.7675 5.5103 77.0274 5.63601 77.3044 5.73828C77.5814 5.83629 77.8478 5.91726 78.1034 5.98118L79.3819 6.31357C79.7995 6.41584 80.2277 6.55433 80.6667 6.72905C81.1056 6.90376 81.5125 7.13388 81.8875 7.41939C82.2625 7.7049 82.5651 8.05859 82.7952 8.48047C83.0296 8.90234 83.1468 9.40732 83.1468 9.99538C83.1468 10.7369 82.955 11.3952 82.5715 11.9705C82.1922 12.5458 81.6404 12.9996 80.9159 13.332C80.1958 13.6644 79.3243 13.8306 78.3016 13.8306C77.3215 13.8306 76.4735 13.6751 75.7576 13.364C75.0417 13.0529 74.4813 12.6119 74.0765 12.0408C73.6716 11.4656 73.4479 10.7837 73.4053 9.99538H75.3868C75.4252 10.4684 75.5786 10.8626 75.847 11.1779C76.1198 11.489 76.4671 11.7212 76.889 11.8746C77.3151 12.0238 77.7817 12.0984 78.2888 12.0984C78.847 12.0984 79.3435 12.011 79.7782 11.8363C80.2171 11.6573 80.5622 11.4102 80.8137 11.0948C81.0651 10.7752 81.1908 10.4023 81.1908 9.97621C81.1908 9.58842 81.08 9.27095 80.8584 9.02379C80.6411 8.77663 80.3449 8.57209 79.9699 8.41016C79.5992 8.24822 79.1794 8.10547 78.7107 7.98189L77.1638 7.56001C76.1155 7.2745 75.2845 6.85476 74.6709 6.30078C74.0615 5.7468 73.7568 5.01385 73.7568 4.10192C73.7568 3.34766 73.9614 2.68927 74.3705 2.12677C74.7796 1.56427 75.3336 1.12749 76.0324 0.816406C76.7313 0.501065 77.5196 0.343394 78.3975 0.343394C79.2838 0.343394 80.0658 0.498934 80.7434 0.810014C81.4252 1.12109 81.9621 1.54936 82.3542 2.09481C82.7462 2.63601 82.9507 3.25817 82.9678 3.96129H81.063ZM90.0351 13.8114C89.0678 13.8114 88.2347 13.6048 87.5359 13.1914C86.8413 12.7738 86.3043 12.1879 85.9251 11.4336C85.5501 10.6751 85.3626 9.78658 85.3626 8.76811C85.3626 7.76243 85.5501 6.87607 85.9251 6.10902C86.3043 5.34197 86.8327 4.74325 87.5103 4.31285C88.1921 3.88246 88.989 3.66726 89.9009 3.66726C90.4549 3.66726 90.9918 3.75888 91.5117 3.94212C92.0316 4.12535 92.4982 4.413 92.9116 4.80504C93.3249 5.19709 93.6509 5.70632 93.8896 6.33274C94.1282 6.9549 94.2475 7.71129 94.2475 8.60192V9.27947H86.4428V7.84766H92.3746C92.3746 7.34482 92.2724 6.8995 92.0678 6.51172C91.8633 6.11967 91.5756 5.81072 91.2049 5.58487C90.8384 5.35902 90.408 5.24609 89.9137 5.24609C89.3768 5.24609 88.908 5.3782 88.5075 5.6424C88.1111 5.90234 87.8043 6.24325 87.587 6.66513C87.3739 7.08274 87.2674 7.53658 87.2674 8.02663V9.14524C87.2674 9.80149 87.3825 10.3597 87.6126 10.82C87.8469 11.2802 88.1729 11.6317 88.5905 11.8746C89.0082 12.1133 89.4961 12.2326 90.0543 12.2326C90.4165 12.2326 90.7468 12.1815 91.0451 12.0792C91.3434 11.9727 91.6012 11.815 91.8185 11.6062C92.0359 11.3974 92.2021 11.1396 92.3171 10.8327L94.1261 11.1587C93.9812 11.6914 93.7212 12.158 93.3462 12.5586C92.9755 12.9549 92.5089 13.2638 91.9464 13.4854C91.3881 13.7028 90.7511 13.8114 90.0351 13.8114ZM100.954 13.8114C100.003 13.8114 99.1853 13.5962 98.4992 13.1658C97.8174 12.7312 97.2932 12.1325 96.9267 11.3697C96.5603 10.6069 96.377 9.73331 96.377 8.74893C96.377 7.75178 96.5645 6.8718 96.9395 6.10902C97.3145 5.34197 97.8429 4.74325 98.5247 4.31285C99.2066 3.88246 100.01 3.66726 100.935 3.66726C101.68 3.66726 102.345 3.80575 102.929 4.08274C103.513 4.35547 103.984 4.73899 104.342 5.23331C104.704 5.72763 104.919 6.30504 104.987 6.96555H103.127C103.025 6.50533 102.79 6.10902 102.424 5.77663C102.062 5.44425 101.576 5.27805 100.967 5.27805C100.434 5.27805 99.9672 5.41868 99.5666 5.69993C99.1703 5.97692 98.8614 6.37322 98.6398 6.88885C98.4182 7.40021 98.3074 8.00533 98.3074 8.70419C98.3074 9.4201 98.4161 10.038 98.6334 10.5579C98.8507 11.0778 99.1576 11.4805 99.5539 11.766C99.9544 12.0515 100.425 12.1942 100.967 12.1942C101.329 12.1942 101.657 12.1282 101.951 11.9961C102.249 11.8597 102.498 11.6658 102.699 11.4144C102.903 11.163 103.046 10.8604 103.127 10.5067H104.987C104.919 11.1417 104.712 11.7085 104.367 12.207C104.022 12.7056 103.56 13.0977 102.98 13.3832C102.405 13.6687 101.729 13.8114 100.954 13.8114ZM113.7 9.54155V3.7951H115.618V13.6133H113.739V11.913H113.637C113.411 12.4371 113.048 12.8739 112.55 13.2234C112.056 13.5685 111.44 13.7411 110.703 13.7411C110.072 13.7411 109.514 13.6026 109.028 13.3256C108.546 13.0444 108.167 12.6289 107.89 12.0792C107.617 11.5295 107.481 10.8498 107.481 10.0401V3.7951H109.392V9.81001C109.392 10.479 109.578 11.0117 109.948 11.408C110.319 11.8043 110.801 12.0025 111.393 12.0025C111.751 12.0025 112.107 11.913 112.46 11.734C112.818 11.555 113.114 11.2844 113.349 10.9222C113.587 10.56 113.705 10.0998 113.7 9.54155ZM118.636 13.6133V3.7951H120.483V5.35476H120.586C120.765 4.82635 121.08 4.41087 121.532 4.10831C121.988 3.80149 122.503 3.64808 123.079 3.64808C123.198 3.64808 123.338 3.65234 123.5 3.66087C123.667 3.66939 123.797 3.68004 123.89 3.69283V5.52095C123.814 5.49964 123.677 5.47621 123.481 5.45064C123.285 5.42081 123.089 5.40589 122.893 5.40589C122.441 5.40589 122.039 5.50178 121.685 5.69354C121.336 5.88104 121.059 6.14311 120.854 6.47976C120.65 6.81214 120.547 7.19141 120.547 7.61754V13.6133H118.636ZM129.874 13.8114C128.907 13.8114 128.074 13.6048 127.375 13.1914C126.68 12.7738 126.143 12.1879 125.764 11.4336C125.389 10.6751 125.202 9.78658 125.202 8.76811C125.202 7.76243 125.389 6.87607 125.764 6.10902C126.143 5.34197 126.672 4.74325 127.349 4.31285C128.031 3.88246 128.828 3.66726 129.74 3.66726C130.294 3.66726 130.831 3.75888 131.351 3.94212C131.871 4.12535 132.337 4.413 132.751 4.80504C133.164 5.19709 133.49 5.70632 133.729 6.33274C133.967 6.9549 134.087 7.71129 134.087 8.60192V9.27947H126.282V7.84766H132.214C132.214 7.34482 132.111 6.8995 131.907 6.51172C131.702 6.11967 131.415 5.81072 131.044 5.58487C130.677 5.35902 130.247 5.24609 129.753 5.24609C129.216 5.24609 128.747 5.3782 128.347 5.6424C127.95 5.90234 127.643 6.24325 127.426 6.66513C127.213 7.08274 127.106 7.53658 127.106 8.02663V9.14524C127.106 9.80149 127.222 10.3597 127.452 10.82C127.686 11.2802 128.012 11.6317 128.43 11.8746C128.847 12.1133 129.335 12.2326 129.893 12.2326C130.256 12.2326 130.586 12.1815 130.884 12.0792C131.182 11.9727 131.44 11.815 131.658 11.6062C131.875 11.3974 132.041 11.1396 132.156 10.8327L133.965 11.1587C133.82 11.6914 133.56 12.158 133.185 12.5586C132.815 12.9549 132.348 13.2638 131.785 13.4854C131.227 13.7028 130.59 13.8114 129.874 13.8114ZM137.916 13.7347C137.567 13.7347 137.267 13.6112 137.015 13.364C136.764 13.1126 136.638 12.81 136.638 12.4563C136.638 12.1069 136.764 11.8086 137.015 11.5614C137.267 11.31 137.567 11.1843 137.916 11.1843C138.266 11.1843 138.566 11.31 138.818 11.5614C139.069 11.8086 139.195 12.1069 139.195 12.4563C139.195 12.6907 139.135 12.9059 139.016 13.1019C138.901 13.2937 138.747 13.4471 138.556 13.5621C138.364 13.6772 138.151 13.7347 137.916 13.7347ZM146.351 0.522372H148.595L152.014 6.47337H152.155L155.575 0.522372H157.818L153.069 8.47408V13.6133H151.1V8.47408L146.351 0.522372ZM162.498 13.8114C161.578 13.8114 160.775 13.6005 160.088 13.1786C159.402 12.7567 158.87 12.1665 158.49 11.408C158.111 10.6495 157.922 9.76314 157.922 8.74893C157.922 7.73047 158.111 6.83984 158.49 6.07706C158.87 5.31428 159.402 4.72195 160.088 4.30007C160.775 3.8782 161.578 3.66726 162.498 3.66726C163.419 3.66726 164.222 3.8782 164.908 4.30007C165.594 4.72195 166.127 5.31428 166.506 6.07706C166.885 6.83984 167.075 7.73047 167.075 8.74893C167.075 9.76314 166.885 10.6495 166.506 11.408C166.127 12.1665 165.594 12.7567 164.908 13.1786C164.222 13.6005 163.419 13.8114 162.498 13.8114ZM162.505 12.207C163.101 12.207 163.596 12.0494 163.988 11.734C164.38 11.4187 164.669 10.9989 164.857 10.4748C165.049 9.95064 165.145 9.37322 165.145 8.74254C165.145 8.11612 165.049 7.54084 164.857 7.01669C164.669 6.48828 164.38 6.06428 163.988 5.74467C163.596 5.42507 163.101 5.26527 162.505 5.26527C161.904 5.26527 161.405 5.42507 161.009 5.74467C160.617 6.06428 160.325 6.48828 160.133 7.01669C159.946 7.54084 159.852 8.11612 159.852 8.74254C159.852 9.37322 159.946 9.95064 160.133 10.4748C160.325 10.9989 160.617 11.4187 161.009 11.734C161.405 12.0494 161.904 12.207 162.505 12.207ZM175.878 9.54155V3.7951H177.795V13.6133H175.916V11.913H175.814C175.588 12.4371 175.226 12.8739 174.727 13.2234C174.233 13.5685 173.617 13.7411 172.88 13.7411C172.249 13.7411 171.691 13.6026 171.205 13.3256C170.724 13.0444 170.344 12.6289 170.067 12.0792C169.795 11.5295 169.658 10.8498 169.658 10.0401V3.7951H171.57V9.81001C171.57 10.479 171.755 11.0117 172.126 11.408C172.496 11.8043 172.978 12.0025 173.57 12.0025C173.928 12.0025 174.284 11.913 174.638 11.734C174.996 11.555 175.292 11.2844 175.526 10.9222C175.765 10.56 175.882 10.0998 175.878 9.54155ZM180.813 13.6133V3.7951H182.661V5.35476H182.763C182.942 4.82635 183.257 4.41087 183.709 4.10831C184.165 3.80149 184.681 3.64808 185.256 3.64808C185.375 3.64808 185.516 3.65234 185.678 3.66087C185.844 3.66939 185.974 3.68004 186.068 3.69283V5.52095C185.991 5.49964 185.855 5.47621 185.659 5.45064C185.463 5.42081 185.267 5.40589 185.07 5.40589C184.619 5.40589 184.216 5.50178 183.862 5.69354C183.513 5.88104 183.236 6.14311 183.031 6.47976C182.827 6.81214 182.725 7.19141 182.725 7.61754V13.6133H180.813ZM195.529 6.19212L193.797 6.49893C193.724 6.27734 193.609 6.06641 193.451 5.86612C193.298 5.66584 193.089 5.50178 192.825 5.37393C192.561 5.24609 192.231 5.18217 191.834 5.18217C191.293 5.18217 190.841 5.30362 190.479 5.54652C190.117 5.78516 189.936 6.0941 189.936 6.47337C189.936 6.80149 190.057 7.0657 190.3 7.26598C190.543 7.46626 190.935 7.63033 191.476 7.75817L193.036 8.11612C193.939 8.32493 194.613 8.64666 195.056 9.08132C195.499 9.51598 195.721 10.0806 195.721 10.7752C195.721 11.3633 195.55 11.8874 195.209 12.3477C194.873 12.8036 194.402 13.1616 193.797 13.4215C193.196 13.6815 192.499 13.8114 191.706 13.8114C190.607 13.8114 189.71 13.5771 189.015 13.1083C188.321 12.6353 187.895 11.9641 187.737 11.0948L189.584 10.8136C189.699 11.2951 189.936 11.6594 190.294 11.9066C190.652 12.1495 191.118 12.271 191.694 12.271C192.32 12.271 192.821 12.141 193.196 11.881C193.571 11.6168 193.758 11.2951 193.758 10.9158C193.758 10.609 193.643 10.3512 193.413 10.1424C193.187 9.93359 192.84 9.77592 192.371 9.66939L190.709 9.30504C189.793 9.09624 189.115 8.76385 188.677 8.30788C188.242 7.85192 188.025 7.2745 188.025 6.57564C188.025 5.99609 188.186 5.48899 188.51 5.05433C188.834 4.61967 189.282 4.28089 189.853 4.038C190.424 3.79084 191.078 3.66726 191.815 3.66726C192.876 3.66726 193.711 3.89737 194.321 4.3576C194.93 4.81357 195.333 5.42507 195.529 6.19212ZM199.531 13.7347C199.182 13.7347 198.881 13.6112 198.63 13.364C198.379 13.1126 198.253 12.81 198.253 12.4563C198.253 12.1069 198.379 11.8086 198.63 11.5614C198.881 11.31 199.182 11.1843 199.531 11.1843C199.881 11.1843 200.181 11.31 200.432 11.5614C200.684 11.8086 200.81 12.1069 200.81 12.4563C200.81 12.6907 200.75 12.9059 200.631 13.1019C200.516 13.2937 200.362 13.4471 200.17 13.5621C199.979 13.6772 199.766 13.7347 199.531 13.7347Z" fill="#B0E4DD"/>
</svg>
