<svg width="16" height="16" viewBox="0 0 16 16" fill="none" xmlns="http://www.w3.org/2000/svg">
<path fill-rule="evenodd" clip-rule="evenodd" d="M15.5198 10.8775C15.8571 10.4592 16.0189 10.0109 15.9982 9.54914C15.9776 9.04057 15.7435 8.64241 15.5508 8.39816C15.7745 7.85613 15.8606 7.00293 15.1137 6.34044C14.5664 5.85529 13.6371 5.63781 12.3498 5.69803C11.4466 5.73809 10.6908 5.90137 10.6565 5.90878L10.6563 5.90882H10.6529C10.4808 5.93894 10.2984 5.97574 10.1125 6.01589C10.0987 5.80176 10.1366 5.26976 10.5427 4.07194C11.0246 2.64659 10.9971 1.55583 10.4532 0.826432C9.88188 0.0602258 8.96976 0 8.70128 0C8.44314 0 8.20564 0.103722 8.03698 0.294437C7.65493 0.726056 7.69967 1.52238 7.74786 1.89042C7.29352 3.07486 6.01999 5.97909 4.94266 6.78545C4.92201 6.79883 4.9048 6.81556 4.88759 6.83229C4.57093 7.15684 4.35753 7.50816 4.21296 7.81598C4.00989 7.70891 3.77928 7.64868 3.53145 7.64868H1.43186C0.640205 7.64868 0 8.27436 0 9.04057V14.4776C0 15.2472 0.643647 15.8695 1.43186 15.8695H3.53145C3.83779 15.8695 4.12347 15.7758 4.35753 15.6152L5.16639 15.7089C5.2903 15.7256 7.49315 15.9967 9.75452 15.9532C10.1641 15.9833 10.5496 16 10.9076 16C11.5237 16 12.0606 15.9532 12.5081 15.8595C13.5613 15.642 14.2807 15.207 14.6456 14.568C14.9244 14.0795 14.9244 13.5943 14.8796 13.2865C15.5646 12.6842 15.685 12.0184 15.6609 11.55C15.6472 11.279 15.5852 11.0481 15.5198 10.8775ZM1.43221 14.9643C1.15342 14.9643 0.929688 14.7434 0.929688 14.4758V9.03537C0.929688 8.76436 1.15686 8.54688 1.43221 8.54688H3.53181C3.81061 8.54688 4.03434 8.7677 4.03434 9.03537V14.4724C4.03434 14.7434 3.80717 14.9609 3.53181 14.9609H1.43221V14.9643ZM14.5772 11.0331C14.4671 10.8591 14.4946 10.6349 14.6392 10.4877C14.9386 10.1866 15.0832 9.88213 15.0694 9.58434C15.0525 9.14672 14.7027 8.81912 14.6878 8.80519L14.6874 8.80475C14.5153 8.65419 14.4774 8.40994 14.6048 8.22257C14.6495 8.15231 15.0453 7.49651 14.4877 7.00132C13.8303 6.41914 11.9373 6.55632 10.8806 6.7805C10.8737 6.78217 10.8659 6.78384 10.8582 6.78552C10.8504 6.78719 10.8427 6.78886 10.8358 6.79053C10.6465 6.82065 10.4469 6.8608 10.2369 6.90764C10.0166 6.98459 9.71374 6.97456 9.48657 6.77715C9.02879 6.38234 9.07698 5.48564 9.65523 3.78259C10.0338 2.66506 10.0476 1.8219 9.69653 1.35013C9.40053 0.951972 8.90832 0.901783 8.7259 0.898438C8.64329 1.03562 8.62264 1.494 8.68116 1.86874C8.69492 1.9457 8.68804 2.02265 8.6605 2.09292C8.59511 2.2669 7.08408 6.28531 5.53864 7.47644C5.13249 7.90137 4.96039 8.3999 4.89844 8.62408C4.93974 8.75457 4.96383 8.89509 4.96383 9.03897V14.4794C4.96383 14.5797 4.95351 14.6801 4.93286 14.7738L5.2805 14.814H5.28394C5.30803 14.8173 7.54531 15.0984 9.75849 15.0515H9.80668C10.8461 15.1318 11.6929 15.1084 12.3159 14.9779C13.0938 14.8173 13.6066 14.5296 13.8372 14.128C14.0663 13.7305 13.9438 13.3117 13.9312 13.2685C13.9305 13.2662 13.9301 13.265 13.9301 13.2648C13.8613 13.0774 13.9267 12.87 14.0885 12.7495C14.5428 12.4183 14.7597 12.0302 14.7356 11.5919C14.72 11.3019 14.6035 11.0828 14.581 11.0405C14.5786 11.0359 14.5772 11.0334 14.5772 11.0331Z" fill="white"/>
</svg>
