<svg width="306" height="117" viewBox="0 0 306 117" fill="none" xmlns="http://www.w3.org/2000/svg">
<mask id="mask0_33762_81" style="mask-type:luminance" maskUnits="userSpaceOnUse" x="276" y="54" width="3" height="18">
<path d="M276.604 55.1369V70.8449C276.604 71.3702 277.03 71.7969 277.556 71.7969C278.081 71.7969 278.506 71.3702 278.506 70.8449V55.1369C278.506 54.6115 278.081 54.1862 277.556 54.1862C277.03 54.1862 276.604 54.6115 276.604 55.1369Z" fill="white"/>
</mask>
<g mask="url(#mask0_33762_81)">
<path d="M276.604 55.1369V70.8449C276.604 71.3702 277.03 71.7969 277.556 71.7969C278.081 71.7969 278.506 71.3702 278.506 70.8449V55.1369C278.506 54.6115 278.081 54.1862 277.556 54.1862C277.03 54.1862 276.604 54.6115 276.604 55.1369Z" fill="url(#paint0_linear_33762_81)"/>
</g>
<mask id="mask1_33762_81" style="mask-type:luminance" maskUnits="userSpaceOnUse" x="269" y="50" width="3" height="25">
<path d="M269.867 50.9635V73.7902C269.867 74.3155 270.294 74.7422 270.819 74.7422C271.345 74.7422 271.77 74.3155 271.77 73.7902V50.9635C271.77 50.4382 271.345 50.0129 270.819 50.0129C270.294 50.0129 269.867 50.4382 269.867 50.9635Z" fill="white"/>
</mask>
<g mask="url(#mask1_33762_81)">
<path d="M269.867 50.9635V73.7902C269.867 74.3155 270.294 74.7422 270.819 74.7422C271.345 74.7422 271.77 74.3155 271.77 73.7902V50.9635C271.77 50.4382 271.345 50.0129 270.819 50.0129C270.294 50.0129 269.867 50.4382 269.867 50.9635Z" fill="url(#paint1_linear_33762_81)"/>
</g>
<mask id="mask2_33762_81" style="mask-type:luminance" maskUnits="userSpaceOnUse" x="263" y="37" width="3" height="52">
<path d="M263.131 38.1964V87.5337C263.131 88.059 263.556 88.4844 264.082 88.4844C264.607 88.4844 265.032 88.059 265.032 87.5337V38.1964C265.032 37.6711 264.607 37.2457 264.082 37.2457C263.556 37.2457 263.131 37.6711 263.131 38.1964Z" fill="white"/>
</mask>
<g mask="url(#mask2_33762_81)">
<path d="M263.131 38.1964V87.5337C263.131 88.059 263.556 88.4844 264.082 88.4844C264.607 88.4844 265.032 88.059 265.032 87.5337V38.1964C265.032 37.6711 264.607 37.2457 264.082 37.2457C263.556 37.2457 263.131 37.6711 263.131 38.1964Z" fill="url(#paint2_linear_33762_81)"/>
</g>
<mask id="mask3_33762_81" style="mask-type:luminance" maskUnits="userSpaceOnUse" x="256" y="29" width="3" height="68">
<path d="M256.393 30.5854V95.8774C256.393 96.4028 256.818 96.8281 257.343 96.8281C257.869 96.8281 258.295 96.4028 258.295 95.8774V30.5854C258.295 30.0601 257.869 29.6348 257.343 29.6348C256.818 29.6348 256.393 30.0601 256.393 30.5854Z" fill="white"/>
</mask>
<g mask="url(#mask3_33762_81)">
<path d="M256.393 30.5854V95.8774C256.393 96.4028 256.818 96.8281 257.343 96.8281C257.869 96.8281 258.295 96.4028 258.295 95.8774V30.5854C258.295 30.0601 257.869 29.6348 257.343 29.6348C256.818 29.6348 256.393 30.0601 256.393 30.5854Z" fill="url(#paint3_linear_33762_81)"/>
</g>
<mask id="mask4_33762_81" style="mask-type:luminance" maskUnits="userSpaceOnUse" x="303" y="56" width="3" height="13">
<path d="M303.439 57.3401V67.3228C303.439 67.8481 303.865 68.2734 304.39 68.2734C304.915 68.2734 305.342 67.8481 305.342 67.3228V57.3401C305.342 56.8161 304.915 56.3895 304.39 56.3895C303.865 56.3895 303.439 56.8161 303.439 57.3401Z" fill="white"/>
</mask>
<g mask="url(#mask4_33762_81)">
<path d="M303.439 57.3401V67.3228C303.439 67.8481 303.865 68.2734 304.39 68.2734C304.915 68.2734 305.342 67.8481 305.342 67.3228V57.3401C305.342 56.8161 304.915 56.3895 304.39 56.3895C303.865 56.3895 303.439 56.8161 303.439 57.3401Z" fill="url(#paint4_linear_33762_81)"/>
</g>
<mask id="mask5_33762_81" style="mask-type:luminance" maskUnits="userSpaceOnUse" x="296" y="53" width="3" height="19">
<path d="M296.703 54.7228V70.4321C296.703 70.9575 297.13 71.3828 297.655 71.3828C298.18 71.3828 298.606 70.9575 298.606 70.4321V54.7228C298.606 54.1975 298.18 53.7708 297.655 53.7708C297.13 53.7708 296.703 54.1975 296.703 54.7228Z" fill="white"/>
</mask>
<g mask="url(#mask5_33762_81)">
<path d="M296.703 54.7228V70.4321C296.703 70.9575 297.13 71.3828 297.655 71.3828C298.18 71.3828 298.606 70.9575 298.606 70.4321V54.7228C298.606 54.1975 298.18 53.7708 297.655 53.7708C297.13 53.7708 296.703 54.1975 296.703 54.7228Z" fill="url(#paint5_linear_33762_81)"/>
</g>
<mask id="mask6_33762_81" style="mask-type:luminance" maskUnits="userSpaceOnUse" x="289" y="47" width="3" height="30">
<path d="M289.969 48.8384V76.0024C289.969 76.5278 290.394 76.9531 290.919 76.9531C291.445 76.9531 291.87 76.5278 291.87 76.0024V48.8384C291.87 48.3131 291.445 47.8865 290.919 47.8865C290.394 47.8865 289.969 48.3131 289.969 48.8384Z" fill="white"/>
</mask>
<g mask="url(#mask6_33762_81)">
<path d="M289.969 48.8384V76.0024C289.969 76.5278 290.394 76.9531 290.919 76.9531C291.445 76.9531 291.87 76.5278 291.87 76.0024V48.8384C291.87 48.3131 291.445 47.8865 290.919 47.8865C290.394 47.8865 289.969 48.3131 289.969 48.8384Z" fill="url(#paint6_linear_33762_81)"/>
</g>
<mask id="mask7_33762_81" style="mask-type:luminance" maskUnits="userSpaceOnUse" x="283" y="39" width="3" height="46">
<path d="M283.23 40.4885V83.3605C283.23 83.8858 283.656 84.3125 284.181 84.3125C284.706 84.3125 285.133 83.8858 285.133 83.3605V40.4885C285.133 39.9632 284.706 39.5365 284.181 39.5365C283.656 39.5365 283.23 39.9632 283.23 40.4885Z" fill="white"/>
</mask>
<g mask="url(#mask7_33762_81)">
<path d="M283.23 40.4885V83.3605C283.23 83.8858 283.656 84.3125 284.181 84.3125C284.706 84.3125 285.133 83.8858 285.133 83.3605V40.4885C285.133 39.9632 284.706 39.5365 284.181 39.5365C283.656 39.5365 283.23 39.9632 283.23 40.4885Z" fill="url(#paint7_linear_33762_81)"/>
</g>
<mask id="mask8_33762_81" style="mask-type:luminance" maskUnits="userSpaceOnUse" x="249" y="54" width="3" height="18">
<path d="M249.658 55.1369V70.8449C249.658 71.3702 250.085 71.7969 250.61 71.7969C251.136 71.7969 251.561 71.3702 251.561 70.8449V55.1369C251.561 54.6115 251.136 54.1862 250.61 54.1862C250.085 54.1862 249.658 54.6115 249.658 55.1369Z" fill="white"/>
</mask>
<g mask="url(#mask8_33762_81)">
<path d="M249.658 55.1369V70.8449C249.658 71.3702 250.085 71.7969 250.61 71.7969C251.136 71.7969 251.561 71.3702 251.561 70.8449V55.1369C251.561 54.6115 251.136 54.1862 250.61 54.1862C250.085 54.1862 249.658 54.6115 249.658 55.1369Z" fill="url(#paint8_linear_33762_81)"/>
</g>
<mask id="mask9_33762_81" style="mask-type:luminance" maskUnits="userSpaceOnUse" x="242" y="46" width="3" height="36">
<path d="M242.92 47.0354V80.9074C242.92 81.4327 243.347 81.8594 243.872 81.8594C244.397 81.8594 244.823 81.4327 244.823 80.9074V47.0354C244.823 46.51 244.397 46.0847 243.872 46.0847C243.347 46.0847 242.92 46.51 242.92 47.0354Z" fill="white"/>
</mask>
<g mask="url(#mask9_33762_81)">
<path d="M242.92 47.0354V80.9074C242.92 81.4327 243.347 81.8594 243.872 81.8594C244.397 81.8594 244.823 81.4327 244.823 80.9074V47.0354C244.823 46.51 244.397 46.0847 243.872 46.0847C243.347 46.0847 242.92 46.51 242.92 47.0354Z" fill="url(#paint9_linear_33762_81)"/>
</g>
<mask id="mask10_33762_81" style="mask-type:luminance" maskUnits="userSpaceOnUse" x="236" y="54" width="3" height="18">
<path d="M236.186 55.1369V70.8449C236.186 71.3702 236.611 71.7969 237.136 71.7969C237.662 71.7969 238.087 71.3702 238.087 70.8449V55.1369C238.087 54.6115 237.662 54.1862 237.136 54.1862C236.611 54.1862 236.186 54.6115 236.186 55.1369Z" fill="white"/>
</mask>
<g mask="url(#mask10_33762_81)">
<path d="M236.186 55.1369V70.8449C236.186 71.3702 236.611 71.7969 237.136 71.7969C237.662 71.7969 238.087 71.3702 238.087 70.8449V55.1369C238.087 54.6115 237.662 54.1862 237.136 54.1862C236.611 54.1862 236.186 54.6115 236.186 55.1369Z" fill="url(#paint10_linear_33762_81)"/>
</g>
<mask id="mask11_33762_81" style="mask-type:luminance" maskUnits="userSpaceOnUse" x="229" y="47" width="3" height="32">
<path d="M229.447 48.0199V77.7212C229.447 78.2466 229.873 78.6719 230.398 78.6719C230.923 78.6719 231.35 78.2466 231.35 77.7212V48.0199C231.35 47.4946 230.923 47.0692 230.398 47.0692C229.873 47.0692 229.447 47.4946 229.447 48.0199Z" fill="white"/>
</mask>
<g mask="url(#mask11_33762_81)">
<path d="M229.447 48.0199V77.7212C229.447 78.2466 229.873 78.6719 230.398 78.6719C230.923 78.6719 231.35 78.2466 231.35 77.7212V48.0199C231.35 47.4946 230.923 47.0692 230.398 47.0692C229.873 47.0692 229.447 47.4946 229.447 48.0199Z" fill="url(#paint11_linear_33762_81)"/>
</g>
<mask id="mask12_33762_81" style="mask-type:luminance" maskUnits="userSpaceOnUse" x="222" y="43" width="3" height="38">
<path d="M222.711 44.579V79.9243C222.711 80.4497 223.138 80.875 223.663 80.875C224.188 80.875 224.614 80.4497 224.614 79.9243V44.579C224.614 44.0537 224.188 43.6284 223.663 43.6284C223.138 43.6284 222.711 44.0537 222.711 44.579Z" fill="white"/>
</mask>
<g mask="url(#mask12_33762_81)">
<path d="M222.711 44.579V79.9243C222.711 80.4497 223.138 80.875 223.663 80.875C224.188 80.875 224.614 80.4497 224.614 79.9243V44.579C224.614 44.0537 224.188 43.6284 223.663 43.6284C223.138 43.6284 222.711 44.0537 222.711 44.579Z" fill="url(#paint12_linear_33762_81)"/>
</g>
<mask id="mask13_33762_81" style="mask-type:luminance" maskUnits="userSpaceOnUse" x="215" y="36" width="3" height="52">
<path d="M215.975 37.4589V87.0415C215.975 87.5668 216.401 87.9922 216.927 87.9922C217.452 87.9922 217.877 87.5668 217.877 87.0415V37.4589C217.877 36.9335 217.452 36.5082 216.927 36.5082C216.401 36.5082 215.975 36.9335 215.975 37.4589Z" fill="white"/>
</mask>
<g mask="url(#mask13_33762_81)">
<path d="M215.975 37.4589V87.0415C215.975 87.5668 216.401 87.9922 216.927 87.9922C217.452 87.9922 217.877 87.5668 217.877 87.0415V37.4589C217.877 36.9335 217.452 36.5082 216.927 36.5082C216.401 36.5082 215.975 36.9335 215.975 37.4589Z" fill="url(#paint13_linear_33762_81)"/>
</g>
<mask id="mask14_33762_81" style="mask-type:luminance" maskUnits="userSpaceOnUse" x="114" y="31" width="3" height="59">
<path d="M114.846 32.3436V88.0636C114.846 88.5889 115.271 89.0156 115.796 89.0156C116.322 89.0156 116.747 88.5889 116.747 88.0636V32.3436C116.747 31.8183 116.322 31.393 115.796 31.393C115.271 31.393 114.846 31.8183 114.846 32.3436Z" fill="white"/>
</mask>
<g mask="url(#mask14_33762_81)">
<path d="M114.846 32.3436V88.0636C114.846 88.5889 115.271 89.0156 115.796 89.0156C116.322 89.0156 116.747 88.5889 116.747 88.0636V32.3436C116.747 31.8183 116.322 31.393 115.796 31.393C115.271 31.393 114.846 31.8183 114.846 32.3436Z" fill="url(#paint14_linear_33762_81)"/>
</g>
<mask id="mask15_33762_81" style="mask-type:luminance" maskUnits="userSpaceOnUse" x="121" y="44" width="3" height="33">
<path d="M121.992 45.3572V75.0572C121.992 75.5825 122.419 76.0078 122.944 76.0078C123.47 76.0078 123.895 75.5825 123.895 75.0572V45.3572C123.895 44.8318 123.47 44.4065 122.944 44.4065C122.419 44.4065 121.992 44.8318 121.992 45.3572Z" fill="white"/>
</mask>
<g mask="url(#mask15_33762_81)">
<path d="M121.992 45.3572V75.0572C121.992 75.5825 122.419 76.0078 122.944 76.0078C123.47 76.0078 123.895 75.5825 123.895 75.0572V45.3572C123.895 44.8318 123.47 44.4065 122.944 44.4065C122.419 44.4065 121.992 44.8318 121.992 45.3572Z" fill="url(#paint15_linear_33762_81)"/>
</g>
<mask id="mask16_33762_81" style="mask-type:luminance" maskUnits="userSpaceOnUse" x="128" y="40" width="3" height="39">
<path d="M128.729 41.9214V77.2681C128.729 77.7934 129.155 78.2188 129.681 78.2188C130.206 78.2188 130.631 77.7934 130.631 77.2681V41.9214C130.631 41.3961 130.206 40.9707 129.681 40.9707C129.155 40.9707 128.729 41.3961 128.729 41.9214Z" fill="white"/>
</mask>
<g mask="url(#mask16_33762_81)">
<path d="M128.729 41.9214V77.2681C128.729 77.7934 129.155 78.2188 129.681 78.2188C130.206 78.2188 130.631 77.7934 130.631 77.2681V41.9214C130.631 41.3961 130.206 40.9707 129.681 40.9707C129.155 40.9707 128.729 41.3961 128.729 41.9214Z" fill="url(#paint16_linear_33762_81)"/>
</g>
<mask id="mask17_33762_81" style="mask-type:luminance" maskUnits="userSpaceOnUse" x="135" y="33" width="3" height="53">
<path d="M135.465 34.8026V84.3853C135.465 84.9106 135.89 85.3359 136.415 85.3359C136.941 85.3359 137.366 84.9106 137.366 84.3853V34.8026C137.366 34.2773 136.941 33.852 136.415 33.852C135.89 33.852 135.465 34.2773 135.465 34.8026Z" fill="white"/>
</mask>
<g mask="url(#mask17_33762_81)">
<path d="M135.465 34.8026V84.3853C135.465 84.9106 135.89 85.3359 136.415 85.3359C136.941 85.3359 137.366 84.9106 137.366 84.3853V34.8026C137.366 34.2773 136.941 33.852 136.415 33.852C135.89 33.852 135.465 34.2773 135.465 34.8026Z" fill="url(#paint17_linear_33762_81)"/>
</g>
<mask id="mask18_33762_81" style="mask-type:luminance" maskUnits="userSpaceOnUse" x="141" y="25" width="3" height="70">
<path d="M141.52 26.7059V93.4699C141.52 93.9952 141.945 94.4219 142.47 94.4219C142.996 94.4219 143.421 93.9952 143.421 93.4699V26.7059C143.421 26.1805 142.996 25.7539 142.47 25.7539C141.945 25.7539 141.52 26.1805 141.52 26.7059Z" fill="white"/>
</mask>
<g mask="url(#mask18_33762_81)">
<path d="M141.52 26.7059V93.4699C141.52 93.9952 141.945 94.4219 142.47 94.4219C142.996 94.4219 143.421 93.9952 143.421 93.4699V26.7059C143.421 26.1805 142.996 25.7539 142.47 25.7539C141.945 25.7539 141.52 26.1805 141.52 26.7059Z" fill="url(#paint18_linear_33762_81)"/>
</g>
<mask id="mask19_33762_81" style="mask-type:luminance" maskUnits="userSpaceOnUse" x="148" y="12" width="3" height="96">
<path d="M148.256 13.6965V106.97C148.256 107.495 148.681 107.922 149.207 107.922C149.732 107.922 150.159 107.495 150.159 106.97V13.6965C150.159 13.1712 149.732 12.7445 149.207 12.7445C148.681 12.7445 148.256 13.1712 148.256 13.6965Z" fill="white"/>
</mask>
<g mask="url(#mask19_33762_81)">
<path d="M148.256 13.6965V106.97C148.256 107.495 148.681 107.922 149.207 107.922C149.732 107.922 150.159 107.495 150.159 106.97V13.6965C150.159 13.1712 149.732 12.7445 149.207 12.7445C148.681 12.7445 148.256 13.1712 148.256 13.6965Z" fill="url(#paint19_linear_33762_81)"/>
</g>
<mask id="mask20_33762_81" style="mask-type:luminance" maskUnits="userSpaceOnUse" x="154" y="0" width="3" height="117">
<path d="M154.992 1.90762V115.064C154.992 115.589 155.419 116.016 155.944 116.016C156.468 116.016 156.895 115.589 156.895 115.064V1.90762C156.895 1.38229 156.468 0.95697 155.944 0.95697C155.419 0.95697 154.992 1.38229 154.992 1.90762Z" fill="white"/>
</mask>
<g mask="url(#mask20_33762_81)">
<path d="M154.992 1.90762V115.064C154.992 115.589 155.419 116.016 155.944 116.016C156.468 116.016 156.895 115.589 156.895 115.064V1.90762C156.895 1.38229 156.468 0.95697 155.944 0.95697C155.419 0.95697 154.992 1.38229 154.992 1.90762Z" fill="url(#paint20_linear_33762_81)"/>
</g>
<mask id="mask21_33762_81" style="mask-type:luminance" maskUnits="userSpaceOnUse" x="161" y="11" width="3" height="97">
<path d="M161.729 11.9779V106.97C161.729 107.495 162.155 107.922 162.681 107.922C163.206 107.922 163.631 107.495 163.631 106.97V11.9779C163.631 11.4525 163.206 11.0272 162.681 11.0272C162.155 11.0272 161.729 11.4525 161.729 11.9779Z" fill="white"/>
</mask>
<g mask="url(#mask21_33762_81)">
<path d="M161.729 11.9779V106.97C161.729 107.495 162.155 107.922 162.681 107.922C163.206 107.922 163.631 107.495 163.631 106.97V11.9779C163.631 11.4525 163.206 11.0272 162.681 11.0272C162.155 11.0272 161.729 11.4525 161.729 11.9779Z" fill="url(#paint21_linear_33762_81)"/>
</g>
<mask id="mask22_33762_81" style="mask-type:luminance" maskUnits="userSpaceOnUse" x="169" y="27" width="3" height="68">
<path d="M169.119 28.4232V93.4699C169.119 93.9952 169.544 94.4219 170.07 94.4219C170.595 94.4219 171.022 93.9952 171.022 93.4699V28.4232C171.022 27.8979 170.595 27.4725 170.07 27.4725C169.544 27.4725 169.119 27.8979 169.119 28.4232Z" fill="white"/>
</mask>
<g mask="url(#mask22_33762_81)">
<path d="M169.119 28.4232V93.4699C169.119 93.9952 169.544 94.4219 170.07 94.4219C170.595 94.4219 171.022 93.9952 171.022 93.4699V28.4232C171.022 27.8979 170.595 27.4725 170.07 27.4725C169.544 27.4725 169.119 27.8979 169.119 28.4232Z" fill="url(#paint22_linear_33762_81)"/>
</g>
<mask id="mask23_33762_81" style="mask-type:luminance" maskUnits="userSpaceOnUse" x="175" y="36" width="3" height="48">
<path d="M175.857 37.501V82.1743C175.857 82.6983 176.283 83.125 176.808 83.125C177.333 83.125 177.759 82.6983 177.759 82.1743V37.501C177.759 36.9756 177.333 36.549 176.808 36.549C176.283 36.549 175.857 36.9756 175.857 37.501Z" fill="white"/>
</mask>
<g mask="url(#mask23_33762_81)">
<path d="M175.857 37.501V82.1743C175.857 82.6983 176.283 83.125 176.808 83.125C177.333 83.125 177.759 82.6983 177.759 82.1743V37.501C177.759 36.9756 177.333 36.549 176.808 36.549C176.283 36.549 175.857 36.9756 175.857 37.501Z" fill="url(#paint23_linear_33762_81)"/>
</g>
<mask id="mask24_33762_81" style="mask-type:luminance" maskUnits="userSpaceOnUse" x="182" y="44" width="3" height="35">
<path d="M182.592 45.6056V77.7603C182.592 78.2856 183.018 78.7109 183.544 78.7109C184.069 78.7109 184.494 78.2856 184.494 77.7603V45.6056C184.494 45.0803 184.069 44.6536 183.544 44.6536C183.018 44.6536 182.592 45.0803 182.592 45.6056Z" fill="white"/>
</mask>
<g mask="url(#mask24_33762_81)">
<path d="M182.592 45.6056V77.7603C182.592 78.2856 183.018 78.7109 183.544 78.7109C184.069 78.7109 184.494 78.2856 184.494 77.7603V45.6056C184.494 45.0803 184.069 44.6536 183.544 44.6536C183.018 44.6536 182.592 45.0803 182.592 45.6056Z" fill="url(#paint24_linear_33762_81)"/>
</g>
<mask id="mask25_33762_81" style="mask-type:luminance" maskUnits="userSpaceOnUse" x="188" y="47" width="3" height="28">
<path d="M188.646 48.301V73.3384C188.646 73.8637 189.073 74.2891 189.599 74.2891C190.124 74.2891 190.549 73.8637 190.549 73.3384V48.301C190.549 47.7757 190.124 47.3504 189.599 47.3504C189.073 47.3504 188.646 47.7757 188.646 48.301Z" fill="white"/>
</mask>
<g mask="url(#mask25_33762_81)">
<path d="M188.646 48.301V73.3384C188.646 73.8637 189.073 74.2891 189.599 74.2891C190.124 74.2891 190.549 73.8637 190.549 73.3384V48.301C190.549 47.7757 190.124 47.3504 189.599 47.3504C189.073 47.3504 188.646 47.7757 188.646 48.301Z" fill="url(#paint25_linear_33762_81)"/>
</g>
<mask id="mask26_33762_81" style="mask-type:luminance" maskUnits="userSpaceOnUse" x="195" y="36" width="3" height="48">
<path d="M195.385 37.0137V82.4243C195.385 82.9497 195.81 83.375 196.335 83.375C196.861 83.375 197.287 82.9497 197.287 82.4243V37.0137C197.287 36.4883 196.861 36.063 196.335 36.063C195.81 36.063 195.385 36.4883 195.385 37.0137Z" fill="white"/>
</mask>
<g mask="url(#mask26_33762_81)">
<path d="M195.385 37.0137V82.4243C195.385 82.9497 195.81 83.375 196.335 83.375C196.861 83.375 197.287 82.9497 197.287 82.4243V37.0137C197.287 36.4883 196.861 36.063 196.335 36.063C195.81 36.063 195.385 36.4883 195.385 37.0137Z" fill="url(#paint26_linear_33762_81)"/>
</g>
<mask id="mask27_33762_81" style="mask-type:luminance" maskUnits="userSpaceOnUse" x="202" y="40" width="3" height="39">
<path d="M202.119 41.9214V77.2681C202.119 77.7934 202.544 78.2188 203.07 78.2188C203.595 78.2188 204.022 77.7934 204.022 77.2681V41.9214C204.022 41.3961 203.595 40.9707 203.07 40.9707C202.544 40.9707 202.119 41.3961 202.119 41.9214Z" fill="white"/>
</mask>
<g mask="url(#mask27_33762_81)">
<path d="M202.119 41.9214V77.2681C202.119 77.7934 202.544 78.2188 203.07 78.2188C203.595 78.2188 204.022 77.7934 204.022 77.2681V41.9214C204.022 41.3961 203.595 40.9707 203.07 40.9707C202.544 40.9707 202.119 41.3961 202.119 41.9214Z" fill="url(#paint27_linear_33762_81)"/>
</g>
<mask id="mask28_33762_81" style="mask-type:luminance" maskUnits="userSpaceOnUse" x="208" y="26" width="3" height="68">
<path d="M208.857 27.1964V92.979C208.857 93.5043 209.283 93.9297 209.808 93.9297C210.333 93.9297 210.759 93.5043 210.759 92.979V27.1964C210.759 26.671 210.333 26.2443 209.808 26.2443C209.283 26.2443 208.857 26.671 208.857 27.1964Z" fill="white"/>
</mask>
<g mask="url(#mask28_33762_81)">
<path d="M208.857 27.1964V92.979C208.857 93.5043 209.283 93.9297 209.808 93.9297C210.333 93.9297 210.759 93.5043 210.759 92.979V27.1964C210.759 26.671 210.333 26.2443 209.808 26.2443C209.283 26.2443 208.857 26.671 208.857 27.1964Z" fill="url(#paint28_linear_33762_81)"/>
</g>
<mask id="mask29_33762_81" style="mask-type:luminance" maskUnits="userSpaceOnUse" x="26" y="54" width="3" height="18">
<path d="M26.8359 55.1369V70.8449C26.8359 71.3702 27.2613 71.7969 27.7866 71.7969C28.3119 71.7969 28.7386 71.3702 28.7386 70.8449V55.1369C28.7386 54.6115 28.3119 54.1862 27.7866 54.1862C27.2613 54.1862 26.8359 54.6115 26.8359 55.1369Z" fill="white"/>
</mask>
<g mask="url(#mask29_33762_81)">
<path d="M26.8359 55.1369V70.8449C26.8359 71.3702 27.2613 71.7969 27.7866 71.7969C28.3119 71.7969 28.7386 71.3702 28.7386 70.8449V55.1369C28.7386 54.6115 28.3119 54.1862 27.7866 54.1862C27.2613 54.1862 26.8359 54.6115 26.8359 55.1369Z" fill="url(#paint29_linear_33762_81)"/>
</g>
<mask id="mask30_33762_81" style="mask-type:luminance" maskUnits="userSpaceOnUse" x="33" y="50" width="3" height="25">
<path d="M33.5742 50.9635V73.7902C33.5742 74.3155 33.9996 74.7422 34.5249 74.7422C35.0502 74.7422 35.4756 74.3155 35.4756 73.7902V50.9635C35.4756 50.4382 35.0502 50.0129 34.5249 50.0129C33.9996 50.0129 33.5742 50.4382 33.5742 50.9635Z" fill="white"/>
</mask>
<g mask="url(#mask30_33762_81)">
<path d="M33.5742 50.9635V73.7902C33.5742 74.3155 33.9996 74.7422 34.5249 74.7422C35.0502 74.7422 35.4756 74.3155 35.4756 73.7902V50.9635C35.4756 50.4382 35.0502 50.0129 34.5249 50.0129C33.9996 50.0129 33.5742 50.4382 33.5742 50.9635Z" fill="url(#paint30_linear_33762_81)"/>
</g>
<mask id="mask31_33762_81" style="mask-type:luminance" maskUnits="userSpaceOnUse" x="40" y="37" width="3" height="52">
<path d="M40.3086 38.1964V87.5337C40.3086 88.059 40.7339 88.4844 41.2593 88.4844C41.7846 88.4844 42.2113 88.059 42.2113 87.5337V38.1964C42.2113 37.6711 41.7846 37.2457 41.2593 37.2457C40.7339 37.2457 40.3086 37.6711 40.3086 38.1964Z" fill="white"/>
</mask>
<g mask="url(#mask31_33762_81)">
<path d="M40.3086 38.1964V87.5337C40.3086 88.059 40.7339 88.4844 41.2593 88.4844C41.7846 88.4844 42.2113 88.059 42.2113 87.5337V38.1964C42.2113 37.6711 41.7846 37.2457 41.2593 37.2457C40.7339 37.2457 40.3086 37.6711 40.3086 38.1964Z" fill="url(#paint31_linear_33762_81)"/>
</g>
<mask id="mask32_33762_81" style="mask-type:luminance" maskUnits="userSpaceOnUse" x="47" y="29" width="2" height="68">
<path d="M47.0449 30.5854V95.8774C47.0449 96.4028 47.4716 96.8281 47.9969 96.8281C48.5223 96.8281 48.9476 96.4028 48.9476 95.8774V30.5854C48.9476 30.0601 48.5223 29.6348 47.9969 29.6348C47.4716 29.6348 47.0449 30.0601 47.0449 30.5854Z" fill="white"/>
</mask>
<g mask="url(#mask32_33762_81)">
<path d="M47.0449 30.5854V95.8774C47.0449 96.4028 47.4716 96.8281 47.9969 96.8281C48.5223 96.8281 48.9476 96.4028 48.9476 95.8774V30.5854C48.9476 30.0601 48.5223 29.6348 47.9969 29.6348C47.4716 29.6348 47.0449 30.0601 47.0449 30.5854Z" fill="url(#paint32_linear_33762_81)"/>
</g>
<mask id="mask33_33762_81" style="mask-type:luminance" maskUnits="userSpaceOnUse" x="0" y="56" width="2" height="13">
<path d="M0 57.3401V67.3228C0 67.8481 0.425334 68.2734 0.950667 68.2734C1.476 68.2734 1.90133 67.8481 1.90133 67.3228V57.3401C1.90133 56.8161 1.476 56.3895 0.950667 56.3895C0.425334 56.3895 0 56.8161 0 57.3401Z" fill="white"/>
</mask>
<g mask="url(#mask33_33762_81)">
<path d="M0 57.3401V67.3228C0 67.8481 0.425334 68.2734 0.950667 68.2734C1.476 68.2734 1.90133 67.8481 1.90133 67.3228V57.3401C1.90133 56.8161 1.476 56.3895 0.950667 56.3895C0.425334 56.3895 0 56.8161 0 57.3401Z" fill="url(#paint33_linear_33762_81)"/>
</g>
<mask id="mask34_33762_81" style="mask-type:luminance" maskUnits="userSpaceOnUse" x="6" y="53" width="3" height="19">
<path d="M6.73633 54.7228V70.4321C6.73633 70.9575 7.16165 71.3828 7.68698 71.3828C8.21231 71.3828 8.63898 70.9575 8.63898 70.4321V54.7228C8.63898 54.1975 8.21231 53.7708 7.68698 53.7708C7.16165 53.7708 6.73633 54.1975 6.73633 54.7228Z" fill="white"/>
</mask>
<g mask="url(#mask34_33762_81)">
<path d="M6.73633 54.7228V70.4321C6.73633 70.9575 7.16165 71.3828 7.68698 71.3828C8.21231 71.3828 8.63898 70.9575 8.63898 70.4321V54.7228C8.63898 54.1975 8.21231 53.7708 7.68698 53.7708C7.16165 53.7708 6.73633 54.1975 6.73633 54.7228Z" fill="url(#paint34_linear_33762_81)"/>
</g>
<mask id="mask35_33762_81" style="mask-type:luminance" maskUnits="userSpaceOnUse" x="13" y="47" width="3" height="30">
<path d="M13.4727 48.8384V76.0024C13.4727 76.5278 13.898 76.9531 14.4233 76.9531C14.9487 76.9531 15.374 76.5278 15.374 76.0024V48.8384C15.374 48.3131 14.9487 47.8865 14.4233 47.8865C13.898 47.8865 13.4727 48.3131 13.4727 48.8384Z" fill="white"/>
</mask>
<g mask="url(#mask35_33762_81)">
<path d="M13.4727 48.8384V76.0024C13.4727 76.5278 13.898 76.9531 14.4233 76.9531C14.9487 76.9531 15.374 76.5278 15.374 76.0024V48.8384C15.374 48.3131 14.9487 47.8865 14.4233 47.8865C13.898 47.8865 13.4727 48.3131 13.4727 48.8384Z" fill="url(#paint35_linear_33762_81)"/>
</g>
<mask id="mask36_33762_81" style="mask-type:luminance" maskUnits="userSpaceOnUse" x="20" y="39" width="3" height="46">
<path d="M20.209 40.4885V83.3605C20.209 83.8858 20.6343 84.3125 21.1597 84.3125C21.685 84.3125 22.1103 83.8858 22.1103 83.3605V40.4885C22.1103 39.9632 21.685 39.5365 21.1597 39.5365C20.6343 39.5365 20.209 39.9632 20.209 40.4885Z" fill="white"/>
</mask>
<g mask="url(#mask36_33762_81)">
<path d="M20.209 40.4885V83.3605C20.209 83.8858 20.6343 84.3125 21.1597 84.3125C21.685 84.3125 22.1103 83.8858 22.1103 83.3605V40.4885C22.1103 39.9632 21.685 39.5365 21.1597 39.5365C20.6343 39.5365 20.209 39.9632 20.209 40.4885Z" fill="url(#paint36_linear_33762_81)"/>
</g>
<mask id="mask37_33762_81" style="mask-type:luminance" maskUnits="userSpaceOnUse" x="53" y="54" width="3" height="18">
<path d="M53.7812 55.1369V70.8449C53.7812 71.3702 54.2079 71.7969 54.7333 71.7969C55.2586 71.7969 55.6839 71.3702 55.6839 70.8449V55.1369C55.6839 54.6115 55.2586 54.1862 54.7333 54.1862C54.2079 54.1862 53.7812 54.6115 53.7812 55.1369Z" fill="white"/>
</mask>
<g mask="url(#mask37_33762_81)">
<path d="M53.7812 55.1369V70.8449C53.7812 71.3702 54.2079 71.7969 54.7333 71.7969C55.2586 71.7969 55.6839 71.3702 55.6839 70.8449V55.1369C55.6839 54.6115 55.2586 54.1862 54.7333 54.1862C54.2079 54.1862 53.7812 54.6115 53.7812 55.1369Z" fill="url(#paint37_linear_33762_81)"/>
</g>
<mask id="mask38_33762_81" style="mask-type:luminance" maskUnits="userSpaceOnUse" x="60" y="46" width="3" height="36">
<path d="M60.5195 47.0354V80.9074C60.5195 81.4327 60.9449 81.8594 61.4702 81.8594C61.9955 81.8594 62.4208 81.4327 62.4208 80.9074V47.0354C62.4208 46.51 61.9955 46.0847 61.4702 46.0847C60.9449 46.0847 60.5195 46.51 60.5195 47.0354Z" fill="white"/>
</mask>
<g mask="url(#mask38_33762_81)">
<path d="M60.5195 47.0354V80.9074C60.5195 81.4327 60.9449 81.8594 61.4702 81.8594C61.9955 81.8594 62.4208 81.4327 62.4208 80.9074V47.0354C62.4208 46.51 61.9955 46.0847 61.4702 46.0847C60.9449 46.0847 60.5195 46.51 60.5195 47.0354Z" fill="url(#paint38_linear_33762_81)"/>
</g>
<mask id="mask39_33762_81" style="mask-type:luminance" maskUnits="userSpaceOnUse" x="67" y="54" width="3" height="18">
<path d="M67.2539 55.1369V70.8449C67.2539 71.3702 67.6792 71.7969 68.2046 71.7969C68.7299 71.7969 69.1566 71.3702 69.1566 70.8449V55.1369C69.1566 54.6115 68.7299 54.1862 68.2046 54.1862C67.6792 54.1862 67.2539 54.6115 67.2539 55.1369Z" fill="white"/>
</mask>
<g mask="url(#mask39_33762_81)">
<path d="M67.2539 55.1369V70.8449C67.2539 71.3702 67.6792 71.7969 68.2046 71.7969C68.7299 71.7969 69.1566 71.3702 69.1566 70.8449V55.1369C69.1566 54.6115 68.7299 54.1862 68.2046 54.1862C67.6792 54.1862 67.2539 54.6115 67.2539 55.1369Z" fill="url(#paint39_linear_33762_81)"/>
</g>
<mask id="mask40_33762_81" style="mask-type:luminance" maskUnits="userSpaceOnUse" x="73" y="47" width="3" height="32">
<path d="M73.9922 48.0199V77.7212C73.9922 78.2466 74.4175 78.6719 74.9429 78.6719C75.4682 78.6719 75.8935 78.2466 75.8935 77.7212V48.0199C75.8935 47.4946 75.4682 47.0692 74.9429 47.0692C74.4175 47.0692 73.9922 47.4946 73.9922 48.0199Z" fill="white"/>
</mask>
<g mask="url(#mask40_33762_81)">
<path d="M73.9922 48.0199V77.7212C73.9922 78.2466 74.4175 78.6719 74.9429 78.6719C75.4682 78.6719 75.8935 78.2466 75.8935 77.7212V48.0199C75.8935 47.4946 75.4682 47.0692 74.9429 47.0692C74.4175 47.0692 73.9922 47.4946 73.9922 48.0199Z" fill="url(#paint40_linear_33762_81)"/>
</g>
<mask id="mask41_33762_81" style="mask-type:luminance" maskUnits="userSpaceOnUse" x="80" y="43" width="3" height="38">
<path d="M80.7285 44.579V79.9243C80.7285 80.4497 81.1538 80.875 81.6792 80.875C82.2045 80.875 82.6312 80.4497 82.6312 79.9243V44.579C82.6312 44.0537 82.2045 43.6284 81.6792 43.6284C81.1538 43.6284 80.7285 44.0537 80.7285 44.579Z" fill="white"/>
</mask>
<g mask="url(#mask41_33762_81)">
<path d="M80.7285 44.579V79.9243C80.7285 80.4497 81.1538 80.875 81.6792 80.875C82.2045 80.875 82.6312 80.4497 82.6312 79.9243V44.579C82.6312 44.0537 82.2045 43.6284 81.6792 43.6284C81.1538 43.6284 80.7285 44.0537 80.7285 44.579Z" fill="url(#paint41_linear_33762_81)"/>
</g>
<mask id="mask42_33762_81" style="mask-type:luminance" maskUnits="userSpaceOnUse" x="87" y="36" width="3" height="52">
<path d="M87.4648 37.4589V87.0415C87.4648 87.5668 87.8915 87.9922 88.4168 87.9922C88.9422 87.9922 89.3675 87.5668 89.3675 87.0415V37.4589C89.3675 36.9335 88.9422 36.5082 88.4168 36.5082C87.8915 36.5082 87.4648 36.9335 87.4648 37.4589Z" fill="white"/>
</mask>
<g mask="url(#mask42_33762_81)">
<path d="M87.4648 37.4589V87.0415C87.4648 87.5668 87.8915 87.9922 88.4168 87.9922C88.9422 87.9922 89.3675 87.5668 89.3675 87.0415V37.4589C89.3675 36.9335 88.9422 36.5082 88.4168 36.5082C87.8915 36.5082 87.4648 36.9335 87.4648 37.4589Z" fill="url(#paint42_linear_33762_81)"/>
</g>
<mask id="mask43_33762_81" style="mask-type:luminance" maskUnits="userSpaceOnUse" x="108" y="36" width="2" height="48">
<path d="M108.057 37.0137V82.4243C108.057 82.9497 108.482 83.375 109.007 83.375C109.533 83.375 109.958 82.9497 109.958 82.4243V37.0137C109.958 36.4883 109.533 36.063 109.007 36.063C108.482 36.063 108.057 36.4883 108.057 37.0137Z" fill="white"/>
</mask>
<g mask="url(#mask43_33762_81)">
<path d="M108.057 37.0137V82.4243C108.057 82.9497 108.482 83.375 109.007 83.375C109.533 83.375 109.958 82.9497 109.958 82.4243V37.0137C109.958 36.4883 109.533 36.063 109.007 36.063C108.482 36.063 108.057 36.4883 108.057 37.0137Z" fill="url(#paint43_linear_33762_81)"/>
</g>
<mask id="mask44_33762_81" style="mask-type:luminance" maskUnits="userSpaceOnUse" x="101" y="40" width="3" height="39">
<path d="M101.318 41.9214V77.2681C101.318 77.7934 101.745 78.2188 102.27 78.2188C102.796 78.2188 103.221 77.7934 103.221 77.2681V41.9214C103.221 41.3961 102.796 40.9707 102.27 40.9707C101.745 40.9707 101.318 41.3961 101.318 41.9214Z" fill="white"/>
</mask>
<g mask="url(#mask44_33762_81)">
<path d="M101.318 41.9214V77.2681C101.318 77.7934 101.745 78.2188 102.27 78.2188C102.796 78.2188 103.221 77.7934 103.221 77.2681V41.9214C103.221 41.3961 102.796 40.9707 102.27 40.9707C101.745 40.9707 101.318 41.3961 101.318 41.9214Z" fill="url(#paint44_linear_33762_81)"/>
</g>
<mask id="mask45_33762_81" style="mask-type:luminance" maskUnits="userSpaceOnUse" x="94" y="26" width="3" height="68">
<path d="M94.582 27.1964V92.979C94.582 93.5043 95.0074 93.9297 95.5327 93.9297C96.058 93.9297 96.4847 93.5043 96.4847 92.979V27.1964C96.4847 26.671 96.058 26.2443 95.5327 26.2443C95.0074 26.2443 94.582 26.671 94.582 27.1964Z" fill="white"/>
</mask>
<g mask="url(#mask45_33762_81)">
<path d="M94.582 27.1964V92.979C94.582 93.5043 95.0074 93.9297 95.5327 93.9297C96.058 93.9297 96.4847 93.5043 96.4847 92.979V27.1964C96.4847 26.671 96.058 26.2443 95.5327 26.2443C95.0074 26.2443 94.582 26.671 94.582 27.1964Z" fill="url(#paint45_linear_33762_81)"/>
</g>
<defs>
<linearGradient id="paint0_linear_33762_81" x1="277.555" y1="71.7969" x2="276.781" y2="52.8419" gradientUnits="userSpaceOnUse">
<stop stop-color="#FF0000"/>
<stop offset="1" stop-color="#FF0000" stop-opacity="0"/>
</linearGradient>
<linearGradient id="paint1_linear_33762_81" x1="270.819" y1="74.7422" x2="269.296" y2="48.168" gradientUnits="userSpaceOnUse">
<stop stop-color="#FF0000"/>
<stop offset="1" stop-color="#FF0000" stop-opacity="0"/>
</linearGradient>
<linearGradient id="paint2_linear_33762_81" x1="264.082" y1="88.4844" x2="257.609" y2="34.0115" gradientUnits="userSpaceOnUse">
<stop stop-color="#FF0000"/>
<stop offset="1" stop-color="#FF0000" stop-opacity="0"/>
</linearGradient>
<linearGradient id="paint3_linear_33762_81" x1="257.344" y1="96.8281" x2="246.331" y2="26.0997" gradientUnits="userSpaceOnUse">
<stop stop-color="#FF0000"/>
<stop offset="1" stop-color="#FF0000" stop-opacity="0"/>
</linearGradient>
<linearGradient id="paint4_linear_33762_81" x1="304.391" y1="68.2734" x2="304.038" y2="55.4707" gradientUnits="userSpaceOnUse">
<stop stop-color="#FF0000"/>
<stop offset="1" stop-color="#FF0000" stop-opacity="0"/>
</linearGradient>
<linearGradient id="paint5_linear_33762_81" x1="297.654" y1="71.3828" x2="296.881" y2="52.4264" gradientUnits="userSpaceOnUse">
<stop stop-color="#FF0000"/>
<stop offset="1" stop-color="#FF0000" stop-opacity="0"/>
</linearGradient>
<linearGradient id="paint6_linear_33762_81" x1="290.919" y1="76.9531" x2="288.817" y2="45.7572" gradientUnits="userSpaceOnUse">
<stop stop-color="#FF0000"/>
<stop offset="1" stop-color="#FF0000" stop-opacity="0"/>
</linearGradient>
<linearGradient id="paint7_linear_33762_81" x1="284.182" y1="84.3125" x2="279.226" y2="36.5523" gradientUnits="userSpaceOnUse">
<stop stop-color="#FF0000"/>
<stop offset="1" stop-color="#FF0000" stop-opacity="0"/>
</linearGradient>
<linearGradient id="paint8_linear_33762_81" x1="250.61" y1="71.7969" x2="249.836" y2="52.8419" gradientUnits="userSpaceOnUse">
<stop stop-color="#FF0000"/>
<stop offset="1" stop-color="#FF0000" stop-opacity="0"/>
</linearGradient>
<linearGradient id="paint9_linear_33762_81" x1="243.871" y1="81.8594" x2="240.696" y2="43.5529" gradientUnits="userSpaceOnUse">
<stop stop-color="#FF0000"/>
<stop offset="1" stop-color="#FF0000" stop-opacity="0"/>
</linearGradient>
<linearGradient id="paint10_linear_33762_81" x1="237.136" y1="71.7969" x2="236.362" y2="52.8419" gradientUnits="userSpaceOnUse">
<stop stop-color="#FF0000"/>
<stop offset="1" stop-color="#FF0000" stop-opacity="0"/>
</linearGradient>
<linearGradient id="paint11_linear_33762_81" x1="230.399" y1="78.6719" x2="227.917" y2="44.7819" gradientUnits="userSpaceOnUse">
<stop stop-color="#FF0000"/>
<stop offset="1" stop-color="#FF0000" stop-opacity="0"/>
</linearGradient>
<linearGradient id="paint12_linear_33762_81" x1="223.662" y1="80.875" x2="220.222" y2="41.0152" gradientUnits="userSpaceOnUse">
<stop stop-color="#FF0000"/>
<stop offset="1" stop-color="#FF0000" stop-opacity="0"/>
</linearGradient>
<linearGradient id="paint13_linear_33762_81" x1="216.926" y1="87.9922" x2="210.397" y2="33.2647" gradientUnits="userSpaceOnUse">
<stop stop-color="#FF0000"/>
<stop offset="1" stop-color="#FF0000" stop-opacity="0"/>
</linearGradient>
<linearGradient id="paint14_linear_33762_81" x1="115.796" y1="89.0156" x2="107.641" y2="27.9807" gradientUnits="userSpaceOnUse">
<stop stop-color="#FF0000"/>
<stop offset="1" stop-color="#FF0000" stop-opacity="0"/>
</linearGradient>
<linearGradient id="paint15_linear_33762_81" x1="122.944" y1="76.0078" x2="120.462" y2="42.1192" gradientUnits="userSpaceOnUse">
<stop stop-color="#FF0000"/>
<stop offset="1" stop-color="#FF0000" stop-opacity="0"/>
</linearGradient>
<linearGradient id="paint16_linear_33762_81" x1="129.68" y1="78.2187" x2="126.239" y2="38.3575" gradientUnits="userSpaceOnUse">
<stop stop-color="#FF0000"/>
<stop offset="1" stop-color="#FF0000" stop-opacity="0"/>
</linearGradient>
<linearGradient id="paint17_linear_33762_81" x1="136.416" y1="85.3359" x2="129.882" y2="30.6095" gradientUnits="userSpaceOnUse">
<stop stop-color="#FF0000"/>
<stop offset="1" stop-color="#FF0000" stop-opacity="0"/>
</linearGradient>
<linearGradient id="paint18_linear_33762_81" x1="142.47" y1="94.4219" x2="130.973" y2="22.2196" gradientUnits="userSpaceOnUse">
<stop stop-color="#FF0000"/>
<stop offset="1" stop-color="#FF0000" stop-opacity="0"/>
</linearGradient>
<linearGradient id="paint19_linear_33762_81" x1="149.207" y1="107.922" x2="127.625" y2="10.0682" gradientUnits="userSpaceOnUse">
<stop stop-color="#FF0000"/>
<stop offset="1" stop-color="#FF0000" stop-opacity="0"/>
</linearGradient>
<linearGradient id="paint20_linear_33762_81" x1="155.944" y1="116.016" x2="125.065" y2="0.200454" gradientUnits="userSpaceOnUse">
<stop stop-color="#FF0000"/>
<stop offset="1" stop-color="#FF0000" stop-opacity="0"/>
</linearGradient>
<linearGradient id="paint21_linear_33762_81" x1="162.68" y1="107.922" x2="140.35" y2="8.47062" gradientUnits="userSpaceOnUse">
<stop stop-color="#FF0000"/>
<stop offset="1" stop-color="#FF0000" stop-opacity="0"/>
</linearGradient>
<linearGradient id="paint22_linear_33762_81" x1="170.07" y1="94.4219" x2="159.136" y2="23.9382" gradientUnits="userSpaceOnUse">
<stop stop-color="#FF0000"/>
<stop offset="1" stop-color="#FF0000" stop-opacity="0"/>
</linearGradient>
<linearGradient id="paint23_linear_33762_81" x1="176.808" y1="83.125" x2="171.447" y2="33.489" gradientUnits="userSpaceOnUse">
<stop stop-color="#FF0000"/>
<stop offset="1" stop-color="#FF0000" stop-opacity="0"/>
</linearGradient>
<linearGradient id="paint24_linear_33762_81" x1="183.543" y1="78.7109" x2="180.663" y2="42.22" gradientUnits="userSpaceOnUse">
<stop stop-color="#FF0000"/>
<stop offset="1" stop-color="#FF0000" stop-opacity="0"/>
</linearGradient>
<linearGradient id="paint25_linear_33762_81" x1="189.598" y1="74.2891" x2="187.792" y2="45.3584" gradientUnits="userSpaceOnUse">
<stop stop-color="#FF0000"/>
<stop offset="1" stop-color="#FF0000" stop-opacity="0"/>
</linearGradient>
<linearGradient id="paint26_linear_33762_81" x1="196.336" y1="83.375" x2="190.81" y2="32.9724" gradientUnits="userSpaceOnUse">
<stop stop-color="#FF0000"/>
<stop offset="1" stop-color="#FF0000" stop-opacity="0"/>
</linearGradient>
<linearGradient id="paint27_linear_33762_81" x1="203.07" y1="78.2187" x2="199.63" y2="38.3575" gradientUnits="userSpaceOnUse">
<stop stop-color="#FF0000"/>
<stop offset="1" stop-color="#FF0000" stop-opacity="0"/>
</linearGradient>
<linearGradient id="paint28_linear_33762_81" x1="209.808" y1="93.9297" x2="198.63" y2="22.7106" gradientUnits="userSpaceOnUse">
<stop stop-color="#FF0000"/>
<stop offset="1" stop-color="#FF0000" stop-opacity="0"/>
</linearGradient>
<linearGradient id="paint29_linear_33762_81" x1="27.7873" y1="71.7969" x2="27.0137" y2="52.8419" gradientUnits="userSpaceOnUse">
<stop stop-color="#FF0000"/>
<stop offset="1" stop-color="#FF0000" stop-opacity="0"/>
</linearGradient>
<linearGradient id="paint30_linear_33762_81" x1="34.5249" y1="74.7422" x2="33.001" y2="48.1682" gradientUnits="userSpaceOnUse">
<stop stop-color="#FF0000"/>
<stop offset="1" stop-color="#FF0000" stop-opacity="0"/>
</linearGradient>
<linearGradient id="paint31_linear_33762_81" x1="41.2599" y1="88.4844" x2="34.792" y2="34.0104" gradientUnits="userSpaceOnUse">
<stop stop-color="#FF0000"/>
<stop offset="1" stop-color="#FF0000" stop-opacity="0"/>
</linearGradient>
<linearGradient id="paint32_linear_33762_81" x1="47.9963" y1="96.8281" x2="36.9835" y2="26.0997" gradientUnits="userSpaceOnUse">
<stop stop-color="#FF0000"/>
<stop offset="1" stop-color="#FF0000" stop-opacity="0"/>
</linearGradient>
<linearGradient id="paint33_linear_33762_81" x1="0.950667" y1="68.2734" x2="0.597853" y2="55.4707" gradientUnits="userSpaceOnUse">
<stop stop-color="#FF0000"/>
<stop offset="1" stop-color="#FF0000" stop-opacity="0"/>
</linearGradient>
<linearGradient id="paint34_linear_33762_81" x1="7.68765" y1="71.3828" x2="6.914" y2="52.4264" gradientUnits="userSpaceOnUse">
<stop stop-color="#FF0000"/>
<stop offset="1" stop-color="#FF0000" stop-opacity="0"/>
</linearGradient>
<linearGradient id="paint35_linear_33762_81" x1="14.4233" y1="76.9531" x2="12.3206" y2="45.7572" gradientUnits="userSpaceOnUse">
<stop stop-color="#FF0000"/>
<stop offset="1" stop-color="#FF0000" stop-opacity="0"/>
</linearGradient>
<linearGradient id="paint36_linear_33762_81" x1="21.1597" y1="84.3125" x2="16.2007" y2="36.553" gradientUnits="userSpaceOnUse">
<stop stop-color="#FF0000"/>
<stop offset="1" stop-color="#FF0000" stop-opacity="0"/>
</linearGradient>
<linearGradient id="paint37_linear_33762_81" x1="54.7326" y1="71.7969" x2="53.9591" y2="52.8419" gradientUnits="userSpaceOnUse">
<stop stop-color="#FF0000"/>
<stop offset="1" stop-color="#FF0000" stop-opacity="0"/>
</linearGradient>
<linearGradient id="paint38_linear_33762_81" x1="61.4702" y1="81.8594" x2="58.2924" y2="43.5533" gradientUnits="userSpaceOnUse">
<stop stop-color="#FF0000"/>
<stop offset="1" stop-color="#FF0000" stop-opacity="0"/>
</linearGradient>
<linearGradient id="paint39_linear_33762_81" x1="68.2052" y1="71.7969" x2="67.4317" y2="52.8419" gradientUnits="userSpaceOnUse">
<stop stop-color="#FF0000"/>
<stop offset="1" stop-color="#FF0000" stop-opacity="0"/>
</linearGradient>
<linearGradient id="paint40_linear_33762_81" x1="74.9429" y1="78.6719" x2="72.4593" y2="44.7821" gradientUnits="userSpaceOnUse">
<stop stop-color="#FF0000"/>
<stop offset="1" stop-color="#FF0000" stop-opacity="0"/>
</linearGradient>
<linearGradient id="paint41_linear_33762_81" x1="81.6799" y1="80.875" x2="78.2395" y2="41.0152" gradientUnits="userSpaceOnUse">
<stop stop-color="#FF0000"/>
<stop offset="1" stop-color="#FF0000" stop-opacity="0"/>
</linearGradient>
<linearGradient id="paint42_linear_33762_81" x1="88.4162" y1="87.9922" x2="81.8871" y2="33.2647" gradientUnits="userSpaceOnUse">
<stop stop-color="#FF0000"/>
<stop offset="1" stop-color="#FF0000" stop-opacity="0"/>
</linearGradient>
<linearGradient id="paint43_linear_33762_81" x1="109.007" y1="83.375" x2="103.478" y2="32.9732" gradientUnits="userSpaceOnUse">
<stop stop-color="#FF0000"/>
<stop offset="1" stop-color="#FF0000" stop-opacity="0"/>
</linearGradient>
<linearGradient id="paint44_linear_33762_81" x1="102.27" y1="78.2187" x2="98.8291" y2="38.3575" gradientUnits="userSpaceOnUse">
<stop stop-color="#FF0000"/>
<stop offset="1" stop-color="#FF0000" stop-opacity="0"/>
</linearGradient>
<linearGradient id="paint45_linear_33762_81" x1="95.5334" y1="93.9297" x2="84.3626" y2="22.7082" gradientUnits="userSpaceOnUse">
<stop stop-color="#FF0000"/>
<stop offset="1" stop-color="#FF0000" stop-opacity="0"/>
</linearGradient>
</defs>
</svg>
