<svg width="77" height="77" viewBox="0 0 77 77" fill="none" xmlns="http://www.w3.org/2000/svg">
<g filter="url(#filter0_d_34229_152)">
<rect x="10.5" y="10.3516" width="56" height="56" rx="28" fill="url(#paint0_linear_34229_152)" shape-rendering="crispEdges"/>
<path d="M37.15 45.4616V31.2416C37.15 29.8916 36.58 29.3516 35.14 29.3516H31.51C30.07 29.3516 29.5 29.8916 29.5 31.2416V45.4616C29.5 46.8116 30.07 47.3516 31.51 47.3516H35.14C36.58 47.3516 37.15 46.8116 37.15 45.4616Z" fill="white"/>
<path d="M47.4996 45.4616V31.2416C47.4996 29.8916 46.9296 29.3516 45.4896 29.3516H41.8596C40.4296 29.3516 39.8496 29.8916 39.8496 31.2416V45.4616C39.8496 46.8116 40.4196 47.3516 41.8596 47.3516H45.4896C46.9296 47.3516 47.4996 46.8116 47.4996 45.4616Z" fill="white"/>
</g>
<defs>
<filter id="filter0_d_34229_152" x="0.5" y="0.351562" width="76" height="76" filterUnits="userSpaceOnUse" color-interpolation-filters="sRGB">
<feFlood flood-opacity="0" result="BackgroundImageFix"/>
<feColorMatrix in="SourceAlpha" type="matrix" values="0 0 0 0 0 0 0 0 0 0 0 0 0 0 0 0 0 0 127 0" result="hardAlpha"/>
<feOffset/>
<feGaussianBlur stdDeviation="5"/>
<feComposite in2="hardAlpha" operator="out"/>
<feColorMatrix type="matrix" values="0 0 0 0 0.537255 0 0 0 0 0.109804 0 0 0 0 0.12549 0 0 0 1 0"/>
<feBlend mode="normal" in2="BackgroundImageFix" result="effect1_dropShadow_34229_152"/>
<feBlend mode="normal" in="SourceGraphic" in2="effect1_dropShadow_34229_152" result="shape"/>
</filter>
<linearGradient id="paint0_linear_34229_152" x1="38.5" y1="10.3516" x2="38.2338" y2="70.7256" gradientUnits="userSpaceOnUse">
<stop stop-color="#FF0000"/>
<stop offset="1" stop-color="#FF0000" stop-opacity="0"/>
</linearGradient>
</defs>
</svg>
