<svg width="69" height="69" viewBox="0 0 69 69" fill="none" xmlns="http://www.w3.org/2000/svg">
<g filter="url(#filter0_d_34229_166)">
<rect x="16.75" y="16.6016" width="35.5" height="35.5" rx="17.75" stroke="#F2F2F2" stroke-width="0.5" shape-rendering="crispEdges"/>
<path d="M39.0158 28.0297H28.9908L30.5574 26.463C30.7991 26.2214 30.7991 25.8214 30.5574 25.5797C30.3158 25.338 29.9158 25.338 29.6741 25.5797L27.0408 28.213C26.9824 28.2714 26.9408 28.338 26.9074 28.413C26.8741 28.488 26.8574 28.5714 26.8574 28.6547C26.8574 28.738 26.8741 28.8214 26.9074 28.8964C26.9408 28.9714 26.9824 29.038 27.0408 29.0964L29.6741 31.7297C29.7991 31.8547 29.9574 31.913 30.1158 31.913C30.2741 31.913 30.4324 31.8547 30.5574 31.7297C30.7991 31.488 30.7991 31.088 30.5574 30.8464L28.9908 29.2797H39.0158C40.0491 29.2797 40.8908 30.1214 40.8908 31.1547V33.9214C40.8908 34.263 41.1741 34.5464 41.5158 34.5464C41.8574 34.5464 42.1408 34.263 42.1408 33.9214V31.1547C42.1408 29.4297 40.7408 28.0297 39.0158 28.0297Z" fill="white"/>
<path d="M42.1408 40.0479C42.1408 39.9646 42.1241 39.8812 42.0908 39.8062C42.0574 39.7312 42.0158 39.6646 41.9574 39.6062L39.3241 36.9729C39.0824 36.7312 38.6824 36.7312 38.4408 36.9729C38.1991 37.2146 38.1991 37.6146 38.4408 37.8562L40.0074 39.4229H29.9824C28.9491 39.4229 28.1074 38.5813 28.1074 37.5479V34.7813C28.1074 34.4396 27.8241 34.1562 27.4824 34.1562C27.1408 34.1562 26.8574 34.4396 26.8574 34.7813V37.5479C26.8574 39.2729 28.2574 40.6729 29.9824 40.6729H40.0074L38.4408 42.2396C38.1991 42.4812 38.1991 42.8813 38.4408 43.1229C38.5658 43.2479 38.7241 43.3063 38.8824 43.3063C39.0408 43.3063 39.1991 43.2479 39.3241 43.1229L41.9574 40.4896C42.0158 40.4313 42.0574 40.3646 42.0908 40.2896C42.1241 40.2146 42.1408 40.1313 42.1408 40.0479Z" fill="white"/>
</g>
<defs>
<filter id="filter0_d_34229_166" x="0.5" y="0.351562" width="68" height="68" filterUnits="userSpaceOnUse" color-interpolation-filters="sRGB">
<feFlood flood-opacity="0" result="BackgroundImageFix"/>
<feColorMatrix in="SourceAlpha" type="matrix" values="0 0 0 0 0 0 0 0 0 0 0 0 0 0 0 0 0 0 127 0" result="hardAlpha"/>
<feOffset/>
<feGaussianBlur stdDeviation="8"/>
<feComposite in2="hardAlpha" operator="out"/>
<feColorMatrix type="matrix" values="0 0 0 0 0.572549 0 0 0 0 0.329412 0 0 0 0 0.870588 0 0 0 0.32 0"/>
<feBlend mode="normal" in2="BackgroundImageFix" result="effect1_dropShadow_34229_166"/>
<feBlend mode="normal" in="SourceGraphic" in2="effect1_dropShadow_34229_166" result="shape"/>
</filter>
</defs>
</svg>
