<svg width="69" height="69" viewBox="0 0 69 69" fill="none" xmlns="http://www.w3.org/2000/svg">
<g filter="url(#filter0_d_34229_137)">
<rect x="16.75" y="16.6016" width="35.5" height="35.5" rx="17.75" stroke="#F2F2F2" stroke-width="0.5" shape-rendering="crispEdges"/>
<path d="M42.6249 39.3324C42.6249 39.3157 42.6166 39.299 42.6166 39.2824C42.6083 39.2157 42.5999 39.149 42.5749 39.0907C42.5416 39.0157 42.4999 38.9574 42.4499 38.899C42.4499 38.899 42.4499 38.8907 42.4416 38.8907C42.3833 38.8324 42.3166 38.7907 42.2416 38.7574C42.1666 38.724 42.0833 38.7074 41.9999 38.7074L38.1083 38.724C38.1083 38.724 38.1083 38.724 38.0999 38.724C37.5999 38.724 37.1166 38.4907 36.8166 38.0907L35.7999 36.7824C35.5916 36.5074 35.1999 36.4574 34.9249 36.674C34.6499 36.8907 34.5999 37.274 34.8166 37.549L35.8333 38.8574C36.3749 39.5574 37.2249 39.974 38.1083 39.974H38.1166L40.4916 39.9657L39.8999 40.5574C39.6583 40.799 39.6583 41.199 39.8999 41.4407C40.0249 41.5657 40.1833 41.624 40.3416 41.624C40.4999 41.624 40.6583 41.5657 40.7833 41.4407L42.4499 39.774C42.5083 39.7157 42.5499 39.649 42.5833 39.574C42.6083 39.4907 42.6249 39.4074 42.6249 39.3324Z" fill="white"/>
<path d="M31.5167 29.926C30.975 29.176 30.1083 28.7344 29.1833 28.7344C29.175 28.7344 29.175 28.7344 29.1667 28.7344L27 28.7427C26.6583 28.7427 26.375 29.026 26.375 29.3677C26.375 29.7094 26.6583 29.9927 27 29.9927L29.175 29.9844H29.1833C29.7083 29.9844 30.2 30.2344 30.5 30.6594L31.4 31.9094C31.525 32.076 31.7167 32.1677 31.9083 32.1677C32.0333 32.1677 32.1667 32.126 32.275 32.051C32.5583 31.8427 32.6167 31.451 32.4167 31.176L31.5167 29.926Z" fill="white"/>
<path d="M42.6167 29.4172C42.6167 29.4005 42.625 29.3839 42.625 29.3755C42.625 29.2922 42.6083 29.2089 42.575 29.1339C42.5417 29.0589 42.5 28.9922 42.4417 28.9339L40.775 27.2672C40.5333 27.0255 40.1333 27.0255 39.8917 27.2672C39.65 27.5089 39.65 27.9089 39.8917 28.1505L40.4833 28.7422L38.2083 28.7339C38.2 28.7339 38.2 28.7339 38.1917 28.7339C37.2333 28.7339 36.3333 29.2089 35.8 30.0172L30.475 38.0005C30.175 38.4505 29.6667 38.7255 29.125 38.7255H29.1167L27 38.7089C26.6583 38.7089 26.375 38.9839 26.375 39.3339C26.375 39.6755 26.65 39.9589 27 39.9589L29.125 39.9672C29.1333 39.9672 29.1333 39.9672 29.1417 39.9672C30.1083 39.9672 31 39.4922 31.5333 38.6839L36.8583 30.7005C37.1583 30.2505 37.6667 29.9755 38.2083 29.9755H38.2167L42 29.9922C42.0833 29.9922 42.1583 29.9755 42.2417 29.9422C42.3167 29.9089 42.3833 29.8672 42.4417 29.8089C42.4417 29.8089 42.4417 29.8005 42.45 29.8005C42.5 29.7422 42.55 29.6839 42.575 29.6089C42.6 29.5505 42.6083 29.4839 42.6167 29.4172Z" fill="white"/>
</g>
<defs>
<filter id="filter0_d_34229_137" x="0.5" y="0.351562" width="68" height="68" filterUnits="userSpaceOnUse" color-interpolation-filters="sRGB">
<feFlood flood-opacity="0" result="BackgroundImageFix"/>
<feColorMatrix in="SourceAlpha" type="matrix" values="0 0 0 0 0 0 0 0 0 0 0 0 0 0 0 0 0 0 127 0" result="hardAlpha"/>
<feOffset/>
<feGaussianBlur stdDeviation="8"/>
<feComposite in2="hardAlpha" operator="out"/>
<feColorMatrix type="matrix" values="0 0 0 0 0.572549 0 0 0 0 0.329412 0 0 0 0 0.870588 0 0 0 0.32 0"/>
<feBlend mode="normal" in2="BackgroundImageFix" result="effect1_dropShadow_34229_137"/>
<feBlend mode="normal" in="SourceGraphic" in2="effect1_dropShadow_34229_137" result="shape"/>
</filter>
</defs>
</svg>
