<svg width="69" height="69" viewBox="0 0 69 69" fill="none" xmlns="http://www.w3.org/2000/svg">
<g filter="url(#filter0_d_34229_159)">
<rect x="16.75" y="16.6016" width="35.5" height="35.5" rx="17.75" stroke="#F2F2F2" stroke-width="0.5" shape-rendering="crispEdges"/>
<path d="M27.6328 30.3718V38.3468C27.6328 39.9801 29.4078 41.0051 30.8245 40.1884L34.2828 38.1968L37.7411 36.1968C39.1578 35.3801 39.1578 33.3384 37.7411 32.5218L34.2828 30.5218L30.8245 28.5301C29.4078 27.7134 27.6328 28.7301 27.6328 30.3718Z" fill="white"/>
<path d="M41.3672 40.1281C41.0255 40.1281 40.7422 39.8448 40.7422 39.5031V29.2031C40.7422 28.8615 41.0255 28.5781 41.3672 28.5781C41.7089 28.5781 41.9922 28.8615 41.9922 29.2031V39.5031C41.9922 39.8448 41.7172 40.1281 41.3672 40.1281Z" fill="white"/>
</g>
<defs>
<filter id="filter0_d_34229_159" x="0.5" y="0.351562" width="68" height="68" filterUnits="userSpaceOnUse" color-interpolation-filters="sRGB">
<feFlood flood-opacity="0" result="BackgroundImageFix"/>
<feColorMatrix in="SourceAlpha" type="matrix" values="0 0 0 0 0 0 0 0 0 0 0 0 0 0 0 0 0 0 127 0" result="hardAlpha"/>
<feOffset/>
<feGaussianBlur stdDeviation="8"/>
<feComposite in2="hardAlpha" operator="out"/>
<feColorMatrix type="matrix" values="0 0 0 0 0.572549 0 0 0 0 0.329412 0 0 0 0 0.870588 0 0 0 0.32 0"/>
<feBlend mode="normal" in2="BackgroundImageFix" result="effect1_dropShadow_34229_159"/>
<feBlend mode="normal" in="SourceGraphic" in2="effect1_dropShadow_34229_159" result="shape"/>
</filter>
</defs>
</svg>
