<svg width="24" height="25" viewBox="0 0 24 25" fill="none" xmlns="http://www.w3.org/2000/svg">
<g clip-path="url(#clip0_34175_470)">
<path d="M23 8.5C22.448 8.5 22 8.053 22 7.5V3.5C22 2.948 21.551 2.5 21 2.5H17C16.448 2.5 16 2.053 16 1.5C16 0.947 16.448 0.5 17 0.5H21C22.654 0.5 24 1.846 24 3.5V7.5C24 8.053 23.552 8.5 23 8.5Z" fill="#4F4F59"/>
<path d="M21 24.5H17C16.448 24.5 16 24.053 16 23.5C16 22.947 16.448 22.5 17 22.5H21C21.551 22.5 22 22.052 22 21.5V17.5C22 16.947 22.448 16.5 23 16.5C23.552 16.5 24 16.947 24 17.5V21.5C24 23.154 22.654 24.5 21 24.5Z" fill="#4F4F59"/>
<path d="M7 24.5H3C1.346 24.5 0 23.154 0 21.5V17.5C0 16.947 0.448 16.5 1 16.5C1.552 16.5 2 16.947 2 17.5V21.5C2 22.052 2.449 22.5 3 22.5H7C7.552 22.5 8 22.947 8 23.5C8 24.053 7.552 24.5 7 24.5Z" fill="#4F4F59"/>
<path d="M1 8.5C0.448 8.5 0 8.053 0 7.5V3.5C0 1.846 1.346 0.5 3 0.5H7C7.552 0.5 8 0.947 8 1.5C8 2.053 7.552 2.5 7 2.5H3C2.449 2.5 2 2.948 2 3.5V7.5C2 8.053 1.552 8.5 1 8.5Z" fill="#4F4F59"/>
<path d="M18 11.5C17.448 11.5 17 11.053 17 10.5V7.5H7V10.5C7 11.053 6.552 11.5 6 11.5C5.448 11.5 5 11.053 5 10.5V7.5C5 6.397 5.897 5.5 7 5.5H17C18.103 5.5 19 6.397 19 7.5V10.5C19 11.053 18.552 11.5 18 11.5Z" fill="#4F4F59"/>
<path d="M21 14.5C21 15.053 20.552 15.5 20 15.5H19V17.5C19 18.603 18.103 19.5 17 19.5H7C5.897 19.5 5 18.603 5 17.5V15.5H4C3.448 15.5 3 15.053 3 14.5C3 13.947 3.448 13.5 4 13.5H20C20.552 13.5 21 13.947 21 14.5Z" fill="#4F4F59"/>
</g>
<defs>
<clipPath id="clip0_34175_470">
<rect width="24" height="24" fill="white" transform="translate(0 0.5)"/>
</clipPath>
</defs>
</svg>
