<svg width="16" height="16" viewBox="0 0 16 16" fill="none" xmlns="http://www.w3.org/2000/svg">
<path fill-rule="evenodd" clip-rule="evenodd" d="M0.480186 5.12254C0.142873 5.54078 -0.0188999 5.98913 0.00175285 6.45086C0.0224047 6.95943 0.256458 7.35759 0.449208 7.60184C0.22548 8.14387 0.139431 8.99707 0.886337 9.65956C1.43361 10.1447 2.36294 10.3622 3.65023 10.302C4.55339 10.2619 5.30923 10.0986 5.34345 10.0912L5.34368 10.0912H5.34712C5.51922 10.0611 5.70164 10.0243 5.88751 9.98411C5.90128 10.1982 5.86342 10.7302 5.45727 11.9281C4.97539 13.3534 5.00293 14.4442 5.54676 15.1736C6.11812 15.9398 7.03024 16 7.29872 16C7.55686 16 7.79436 15.8963 7.96301 15.7056C8.34507 15.2739 8.30033 14.4776 8.25214 14.1096C8.70648 12.9251 9.98001 10.0209 11.0573 9.21455C11.078 9.20117 11.0952 9.18444 11.1124 9.16771C11.4291 8.84316 11.6425 8.49184 11.787 8.18402C11.9901 8.29109 12.2207 8.35132 12.4685 8.35132H14.5681C15.3598 8.35132 16 7.72564 16 6.95943V1.52238C16 0.752823 15.3564 0.130488 14.5681 0.130488H12.4685C12.1622 0.130488 11.8765 0.224174 11.6425 0.384776L10.8336 0.291092C10.7097 0.274363 8.50684 0.00334644 6.24547 0.0468426C5.83588 0.0167294 5.45038 0 5.09242 0C4.47631 0 3.93936 0.0468426 3.4919 0.140527C2.43866 0.358009 1.71929 0.792974 1.35444 1.43204C1.07565 1.92054 1.07565 2.40569 1.12039 2.71351C0.435441 3.31577 0.314971 3.9816 0.339065 4.45002C0.352833 4.72104 0.414788 4.9519 0.480186 5.12254ZM14.5678 1.03573C14.8466 1.03573 15.0703 1.25655 15.0703 1.52423V6.96463C15.0703 7.23564 14.8431 7.45312 14.5678 7.45312H12.4682C12.1894 7.45312 11.9657 7.2323 11.9657 6.96463L11.9657 1.52757C11.9657 1.25655 12.1928 1.03907 12.4682 1.03907H14.5678V1.03573ZM1.42276 4.9747C1.5329 5.14869 1.50537 5.37286 1.36081 5.52008C1.06135 5.82121 0.916791 6.12569 0.930559 6.42347C0.947484 6.86109 1.29728 7.18869 1.31215 7.20262L1.31262 7.20306C1.48472 7.35362 1.52258 7.59787 1.39522 7.78524C1.35048 7.85551 0.954654 8.5113 1.51225 9.00649C2.16967 9.58867 4.06275 9.45149 5.11943 9.22732C5.12632 9.22564 5.13406 9.22397 5.14181 9.2223C5.14955 9.22062 5.15729 9.21895 5.16418 9.21728C5.35348 9.18717 5.55312 9.14702 5.76308 9.10017C5.98336 9.02322 6.28626 9.03326 6.51342 9.23066C6.97121 9.62548 6.92302 10.5222 6.34477 12.2252C5.96615 13.3428 5.95238 14.1859 6.30346 14.6577C6.59947 15.0558 7.09167 15.106 7.2741 15.1094C7.35671 14.9722 7.37736 14.5138 7.31884 14.1391C7.30508 14.0621 7.31196 13.9852 7.3395 13.9149C7.40489 13.7409 8.91592 9.72251 10.4614 8.53137C10.8675 8.10645 11.0396 7.60791 11.1016 7.38374C11.0603 7.25325 11.0362 7.11272 11.0362 6.96885L11.0362 1.52845C11.0362 1.42807 11.0465 1.32769 11.0671 1.23401L10.7195 1.19386H10.7161C10.692 1.19051 8.45469 0.909458 6.24151 0.9563H6.19332C5.15385 0.875999 4.30713 0.899421 3.68413 1.02991C2.90625 1.19051 2.39339 1.47826 2.16278 1.87976C1.93373 2.27736 2.05619 2.69613 2.06883 2.73936C2.06949 2.7416 2.06985 2.74284 2.06985 2.743C2.13869 2.93037 2.07329 3.13781 1.91152 3.25827C1.45718 3.58951 1.24034 3.97763 1.26443 4.41594C1.27997 4.70594 1.39651 4.92502 1.41901 4.96732C1.42143 4.97187 1.42276 4.97438 1.42276 4.9747Z" fill="white"/>
</svg>
