<svg width="32" height="32" viewBox="0 0 32 32" fill="none" xmlns="http://www.w3.org/2000/svg">
<path d="M21.334 5.33594C22.07 5.33594 22.6673 5.93327 22.6673 6.66927V12.2693L29.618 7.4026C29.9193 7.19194 30.3353 7.26527 30.5473 7.56794C30.6246 7.67994 30.6673 7.81327 30.6673 7.94927V24.0559C30.6673 24.4239 30.3686 24.7226 30.0006 24.7226C29.8633 24.7226 29.73 24.6799 29.618 24.6026L22.6673 19.7359V25.3359C22.6673 26.0719 22.07 26.6693 21.334 26.6693H2.66732C1.93132 26.6693 1.33398 26.0719 1.33398 25.3359V6.66927C1.33398 5.93327 1.93132 5.33594 2.66732 5.33594H21.334ZM20.0007 8.0026H4.00065V24.0026H20.0007V8.0026ZM12.0007 10.6693L17.334 16.0026H13.334V21.3359H10.6673V16.0026H6.66732L12.0007 10.6693ZM28.0006 11.7906L22.6673 15.5239V16.4813L28.0006 20.2146V11.7906Z" fill="white"/>
</svg>
